<?xml version="1.0" encoding="UTF-8"?>
<svg xmlns="http://www.w3.org/2000/svg" viewBox="0 0 1600 1200" preserveAspectRatio="xMidYMid meet"
     role="img" aria-labelledby="mapTitle mapDesc">
  <title id="mapTitle">Baśniowa mapa-skarbów Chatynkowa</title>
  <desc id="mapDesc">Pergaminowa mapa w stylu piracko-baśniowym. Na karcie naszkicowano góry, lasy,
  cztery zamki (Ogrodzieniec, Olsztyn, Bobolice, Mirów), różę wiatrów oraz osiemnaście chatynek Elfów
  rozmieszczonych po całym pergaminie.</desc>

  <defs>
    <!-- Aged parchment fill (warm centre → burnt tan at edges) -->
    <radialGradient id="parchmentFill" cx="50%" cy="50%" r="70%">
      <stop offset="0%"   stop-color="#f5dfa8"/>
      <stop offset="55%"  stop-color="#e3bf80"/>
      <stop offset="88%"  stop-color="#b3823a"/>
      <stop offset="100%" stop-color="#8a5a2b"/>
    </radialGradient>

    <!-- Inner edge burnt vignette -->
    <radialGradient id="innerBurn" cx="50%" cy="50%" r="65%">
      <stop offset="60%"  stop-color="#000" stop-opacity="0"/>
      <stop offset="90%"  stop-color="#2a1806" stop-opacity="0.35"/>
      <stop offset="100%" stop-color="#2a1806" stop-opacity="0.75"/>
    </radialGradient>

    <filter id="paperGrain" x="0%" y="0%" width="100%" height="100%">
      <feTurbulence type="fractalNoise" baseFrequency="0.9" numOctaves="2" seed="11"/>
      <feColorMatrix values="0 0 0 0 0.44
                             0 0 0 0 0.30
                             0 0 0 0 0.12
                             0 0 0 0.22 0"/>
      <feComposite in2="SourceGraphic" operator="in"/>
    </filter>

    <filter id="softShadow" x="-10%" y="-10%" width="120%" height="120%">
      <feGaussianBlur in="SourceAlpha" stdDeviation="2"/>
      <feOffset dx="1" dy="2"/>
      <feComponentTransfer><feFuncA type="linear" slope="0.38"/></feComponentTransfer>
      <feMerge><feMergeNode/><feMergeNode in="SourceGraphic"/></feMerge>
    </filter>

    <filter id="mapDrop" x="-5%" y="-5%" width="110%" height="115%">
      <feGaussianBlur in="SourceAlpha" stdDeviation="8"/>
      <feOffset dx="0" dy="14"/>
      <feComponentTransfer><feFuncA type="linear" slope="0.55"/></feComponentTransfer>
      <feMerge><feMergeNode/><feMergeNode in="SourceGraphic"/></feMerge>
    </filter>

    <clipPath id="paperClip"><path d="M28.0,28.0 L58.7,15.4 L76.1,29.3 L107.3,28.3 L170.1,12.5 L208.8,39.8 L251.5,32.6 L312.5,24.3 L304.6,40.9 L349.6,14.2 L435.2,16.5 L462.1,23.4 L458.3,12.1 L537.2,25.4 L569.7,26.3 L620.1,35.2 L657.7,28.9 L708.0,20.4 L704.4,25.1 L730.7,27.6 L811.8,37.5 L865.7,21.3 L882.2,30.9 L936.3,44.0 L968.6,12.2 L1008.5,45.8 L1021.7,23.9 L1034.1,26.6 L1090.5,12.1 L1122.3,18.9 L1207.9,12.9 L1234.0,41.8 L1284.0,20.0 L1302.2,41.8 L1313.5,16.3 L1364.3,27.5 L1401.3,10.1 L1457.2,30.4 L1508.9,28.6 L1552.3,11.9 L1572.0,28.0 L1558.5,84.9 L1575.6,91.4 L1587.8,139.9 L1584.2,164.0 L1590.0,191.2 L1576.9,229.1 L1567.9,305.0 L1577.5,319.0 L1559.4,363.8 L1572.6,399.5 L1577.7,424.6 L1584.2,491.1 L1571.0,537.3 L1589.0,564.4 L1558.9,625.8 L1576.8,620.5 L1570.8,694.3 L1582.0,712.8 L1559.3,780.8 L1563.4,799.8 L1577.2,820.2 L1579.9,840.5 L1555.6,912.8 L1554.4,972.3 L1582.1,969.7 L1582.6,1008.1 L1559.7,1075.5 L1561.2,1094.4 L1557.2,1146.9 L1572.0,1172.0 L1524.4,1172.8 L1470.9,1178.0 L1429.0,1175.7 L1396.6,1163.9 L1393.9,1184.6 L1314.9,1184.7 L1275.1,1166.3 L1269.9,1185.3 L1195.0,1166.6 L1151.8,1174.4 L1132.2,1182.4 L1119.9,1181.3 L1092.4,1174.9 L1007.1,1177.3 L989.4,1157.4 L928.0,1171.9 L915.5,1189.3 L890.8,1189.9 L854.3,1173.0 L796.1,1178.3 L765.9,1161.8 L723.5,1181.1 L666.2,1171.7 L630.7,1157.2 L599.8,1171.8 L555.8,1173.7 L527.2,1156.1 L472.8,1156.1 L442.1,1156.0 L437.6,1185.6 L410.3,1181.3 L318.4,1161.8 L316.3,1164.2 L272.3,1158.2 L240.4,1155.7 L176.5,1154.4 L164.4,1174.5 L118.8,1183.0 L51.8,1189.3 L28.0,1172.0 L10.7,1140.0 L28.4,1098.8 L38.4,1026.0 L19.6,1046.8 L19.7,976.0 L42.8,940.4 L15.4,907.7 L35.2,871.9 L34.8,850.5 L43.8,807.5 L13.0,731.6 L41.1,735.2 L29.9,675.1 L14.7,648.2 L13.9,618.7 L17.3,586.2 L37.3,536.9 L16.4,488.7 L19.0,479.2 L29.8,404.9 L43.6,380.2 L25.6,318.6 L24.2,279.5 L45.4,251.4 L35.4,200.7 L22.5,193.8 L12.5,154.5 L15.9,123.8 L41.3,47.1 L28.0,28.0 Z"/></clipPath>

    
  <!-- Mountain range: a trio of triangular peaks with slope hatching -->
  <symbol id="mountain" viewBox="0 0 160 100">
    <path d="M 10,92 L 50,22 L 90,92 Z"
          fill="#b3823a" stroke="#4a2d10" stroke-width="2"/>
    <path d="M 60,92 L 100,8 L 140,92 Z"
          fill="#e3bf80" stroke="#4a2d10" stroke-width="2"/>
    <path d="M 110,92 L 140,38 L 158,92 Z"
          fill="#b3823a" stroke="#4a2d10" stroke-width="2"/>
    <!-- Snow caps on the tallest peak -->
    <path d="M 92,20 L 100,8 L 108,20 L 104,24 L 100,18 L 96,24 Z"
          fill="#f5dfa8" stroke="#4a2d10" stroke-width="1"/>
    <!-- Slope hatching (suggests rocky terrain) -->
    <g stroke="#4a2d10" stroke-width="0.8" fill="none" opacity="0.8">
      <path d="M 50,22 L 44,34 M 48,30 L 42,42 M 46,38 L 40,50 M 44,46 L 38,58"/>
      <path d="M 100,8 L 93,22 M 98,16 L 90,30 M 96,24 L 88,38 M 94,32 L 86,46 M 92,40 L 84,54 M 90,48 L 82,62 M 88,56 L 80,70"/>
      <path d="M 140,38 L 134,50 M 138,46 L 132,58 M 136,54 L 130,66"/>
    </g>
  </symbol>

  <!-- Single pine / fir tree (small ink silhouette) -->
  <symbol id="pine" viewBox="0 0 30 44">
    <polygon points="15,3 4,18 11,18 3,30 12,30 2,42 28,42 18,30 27,30 19,18 26,18"
             fill="#6b4218" stroke="#2a1806" stroke-width="1"/>
    <rect x="13.5" y="42" width="3" height="2" fill="#2a1806"/>
  </symbol>

  <!-- Fatter pine (variety) -->
  <symbol id="pine2" viewBox="0 0 30 40">
    <polygon points="15,2 3,26 12,26 5,38 25,38 18,26 27,26"
             fill="#8a5a2b" stroke="#2a1806" stroke-width="1"/>
    <rect x="13.5" y="38" width="3" height="2" fill="#2a1806"/>
  </symbol>

  <!-- Castle: main keep, two flanking towers, crenellations, flag -->
  <symbol id="castle" viewBox="0 0 160 140">
    <!-- Rocky base -->
    <path d="M 0,128 Q 30,112 60,122 T 120,118 Q 150,126 160,132 L 160,140 L 0,140 Z"
          fill="#b3823a" stroke="#4a2d10" stroke-width="1.5"/>
    <!-- Left tower -->
    <rect x="22" y="68" width="30" height="60" fill="#e3bf80" stroke="#4a2d10" stroke-width="1.6"/>
    <path d="M 22,68 h4 v-6 h4 v6 h4 v-6 h4 v6 h4 v-6 h4 v6 h4 v-6 h2 v6"
          fill="none" stroke="#4a2d10" stroke-width="1.6"/>
    <!-- Right tower -->
    <rect x="108" y="62" width="32" height="66" fill="#e3bf80" stroke="#4a2d10" stroke-width="1.6"/>
    <path d="M 108,62 h4 v-6 h4 v6 h4 v-6 h4 v6 h4 v-6 h4 v6 h4 v-6 h2 v6"
          fill="none" stroke="#4a2d10" stroke-width="1.6"/>
    <!-- Main keep (central, tallest) -->
    <rect x="58" y="42" width="46" height="86" fill="#f5dfa8" stroke="#4a2d10" stroke-width="1.8"/>
    <path d="M 58,42 h4 v-6 h4 v6 h4 v-6 h4 v6 h4 v-6 h4 v6 h4 v-6 h4 v6 h4 v-6 h4 v6 h4 v-6 h2 v6"
          fill="none" stroke="#4a2d10" stroke-width="1.8"/>
    <!-- Windows -->
    <rect x="76" y="58" width="5" height="10" fill="#4a2d10"/>
    <rect x="83" y="58" width="5" height="10" fill="#4a2d10"/>
    <rect x="30" y="86" width="4" height="8" fill="#4a2d10"/>
    <rect x="42" y="86" width="4" height="8" fill="#4a2d10"/>
    <rect x="118" y="80" width="4" height="8" fill="#4a2d10"/>
    <rect x="130" y="80" width="4" height="8" fill="#4a2d10"/>
    <!-- Door -->
    <path d="M 76,128 V 104 Q 76,96 82,96 H 82 Q 88,96 88,104 V 128 Z"
          fill="#4a2d10"/>
    <!-- Flag on keep -->
    <line x1="81" y1="36" x2="81" y2="18" stroke="#2a1806" stroke-width="2"/>
    <path d="M 81,18 L 100,24 L 81,30 Z" fill="#a83a2a" stroke="#2a1806" stroke-width="1"/>
    <!-- Bricks hatching (subtle) -->
    <g stroke="#4a2d10" stroke-width="0.5" opacity="0.35" fill="none">
      <line x1="58" y1="56"  x2="104" y2="56"/>
      <line x1="58" y1="74"  x2="104" y2="74"/>
      <line x1="58" y1="92"  x2="104" y2="92"/>
      <line x1="58" y1="110" x2="104" y2="110"/>
      <line x1="22" y1="82"  x2="52"  y2="82"/>
      <line x1="22" y1="98"  x2="52"  y2="98"/>
      <line x1="22" y1="114" x2="52"  y2="114"/>
      <line x1="108" y1="76" x2="140" y2="76"/>
      <line x1="108" y1="94" x2="140" y2="94"/>
      <line x1="108" y1="112" x2="140" y2="112"/>
    </g>
  </symbol>

  <!-- Cozy cottage (house + red roof + chimney with curling smoke) -->
  <symbol id="cottageHouse" viewBox="0 0 48 52">
    <!-- Smoke curl -->
    <path d="M 34,10 q -4,-6 2,-10 q 6,-3 0,-10"
          fill="none" stroke="#4a2d10" stroke-width="1.2" stroke-linecap="round" opacity="0.55"/>
    <!-- Chimney -->
    <rect x="32" y="10" width="6" height="12" fill="#4a2d10"/>
    <!-- Roof -->
    <polygon points="6,24 24,6 42,24" fill="#a83a2a" stroke="#2a1806" stroke-width="1.5"/>
    <!-- Walls -->
    <rect x="10" y="24" width="28" height="22" fill="#f5dfa8" stroke="#2a1806" stroke-width="1.5"/>
    <!-- Window -->
    <rect x="14" y="28" width="8" height="8" fill="#4a2d10" stroke="#4a2d10" stroke-width="0.6"/>
    <line x1="18" y1="28" x2="18" y2="36" stroke="#f5dfa8" stroke-width="0.8"/>
    <line x1="14" y1="32" x2="22" y2="32" stroke="#f5dfa8" stroke-width="0.8"/>
    <!-- Door -->
    <path d="M 28,46 V 32 Q 28,28 32,28 Q 36,28 36,32 V 46 Z" fill="#4a2d10"/>
  </symbol>

  <!-- Ornate compass rose -->
  <symbol id="compass" viewBox="0 0 200 200">
    <circle cx="100" cy="100" r="92" fill="none" stroke="#4a2d10" stroke-width="2"/>
    <circle cx="100" cy="100" r="80" fill="none" stroke="#4a2d10" stroke-width="0.8" stroke-dasharray="3 3"/>
    <circle cx="100" cy="100" r="60" fill="none" stroke="#4a2d10" stroke-width="0.8"/>
    <circle cx="100" cy="100" r="8" fill="#4a2d10"/>
    <!-- Tick marks around the outer ring, every 10 degrees -->
    <line x1="100.0" y1="14.0" x2="100.0" y2="8.0" stroke="#4a2d10" stroke-width="1.4"/>
      <line x1="114.9" y1="15.3" x2="116.0" y2="9.4" stroke="#4a2d10" stroke-width="0.8"/>
      <line x1="129.4" y1="19.2" x2="131.5" y2="13.5" stroke="#4a2d10" stroke-width="0.8"/>
      <line x1="143.0" y1="25.5" x2="146.0" y2="20.3" stroke="#4a2d10" stroke-width="0.8"/>
      <line x1="155.3" y1="34.1" x2="159.1" y2="29.5" stroke="#4a2d10" stroke-width="0.8"/>
      <line x1="165.9" y1="44.7" x2="170.5" y2="40.9" stroke="#4a2d10" stroke-width="0.8"/>
      <line x1="174.5" y1="57.0" x2="179.7" y2="54.0" stroke="#4a2d10" stroke-width="0.8"/>
      <line x1="180.8" y1="70.6" x2="186.5" y2="68.5" stroke="#4a2d10" stroke-width="0.8"/>
      <line x1="184.7" y1="85.1" x2="190.6" y2="84.0" stroke="#4a2d10" stroke-width="0.8"/>
      <line x1="186.0" y1="100.0" x2="192.0" y2="100.0" stroke="#4a2d10" stroke-width="1.4"/>
      <line x1="184.7" y1="114.9" x2="190.6" y2="116.0" stroke="#4a2d10" stroke-width="0.8"/>
      <line x1="180.8" y1="129.4" x2="186.5" y2="131.5" stroke="#4a2d10" stroke-width="0.8"/>
      <line x1="174.5" y1="143.0" x2="179.7" y2="146.0" stroke="#4a2d10" stroke-width="0.8"/>
      <line x1="165.9" y1="155.3" x2="170.5" y2="159.1" stroke="#4a2d10" stroke-width="0.8"/>
      <line x1="155.3" y1="165.9" x2="159.1" y2="170.5" stroke="#4a2d10" stroke-width="0.8"/>
      <line x1="143.0" y1="174.5" x2="146.0" y2="179.7" stroke="#4a2d10" stroke-width="0.8"/>
      <line x1="129.4" y1="180.8" x2="131.5" y2="186.5" stroke="#4a2d10" stroke-width="0.8"/>
      <line x1="114.9" y1="184.7" x2="116.0" y2="190.6" stroke="#4a2d10" stroke-width="0.8"/>
      <line x1="100.0" y1="186.0" x2="100.0" y2="192.0" stroke="#4a2d10" stroke-width="1.4"/>
      <line x1="85.1" y1="184.7" x2="84.0" y2="190.6" stroke="#4a2d10" stroke-width="0.8"/>
      <line x1="70.6" y1="180.8" x2="68.5" y2="186.5" stroke="#4a2d10" stroke-width="0.8"/>
      <line x1="57.0" y1="174.5" x2="54.0" y2="179.7" stroke="#4a2d10" stroke-width="0.8"/>
      <line x1="44.7" y1="165.9" x2="40.9" y2="170.5" stroke="#4a2d10" stroke-width="0.8"/>
      <line x1="34.1" y1="155.3" x2="29.5" y2="159.1" stroke="#4a2d10" stroke-width="0.8"/>
      <line x1="25.5" y1="143.0" x2="20.3" y2="146.0" stroke="#4a2d10" stroke-width="0.8"/>
      <line x1="19.2" y1="129.4" x2="13.5" y2="131.5" stroke="#4a2d10" stroke-width="0.8"/>
      <line x1="15.3" y1="114.9" x2="9.4" y2="116.0" stroke="#4a2d10" stroke-width="0.8"/>
      <line x1="14.0" y1="100.0" x2="8.0" y2="100.0" stroke="#4a2d10" stroke-width="1.4"/>
      <line x1="15.3" y1="85.1" x2="9.4" y2="84.0" stroke="#4a2d10" stroke-width="0.8"/>
      <line x1="19.2" y1="70.6" x2="13.5" y2="68.5" stroke="#4a2d10" stroke-width="0.8"/>
      <line x1="25.5" y1="57.0" x2="20.3" y2="54.0" stroke="#4a2d10" stroke-width="0.8"/>
      <line x1="34.1" y1="44.7" x2="29.5" y2="40.9" stroke="#4a2d10" stroke-width="0.8"/>
      <line x1="44.7" y1="34.1" x2="40.9" y2="29.5" stroke="#4a2d10" stroke-width="0.8"/>
      <line x1="57.0" y1="25.5" x2="54.0" y2="20.3" stroke="#4a2d10" stroke-width="0.8"/>
      <line x1="70.6" y1="19.2" x2="68.5" y2="13.5" stroke="#4a2d10" stroke-width="0.8"/>
      <line x1="85.1" y1="15.3" x2="84.0" y2="9.4" stroke="#4a2d10" stroke-width="0.8"/>
    <!-- 8-point star -->
    <polygon points="100,8 108,92 100,88 92,92" fill="#f5dfa8" stroke="#4a2d10" stroke-width="1.4"/>
    <polygon points="100,192 92,108 100,112 108,108" fill="#b3823a" stroke="#4a2d10" stroke-width="1.4"/>
    <polygon points="8,100 92,92 88,100 92,108" fill="#f5dfa8" stroke="#4a2d10" stroke-width="1.4"/>
    <polygon points="192,100 108,108 112,100 108,92" fill="#b3823a" stroke="#4a2d10" stroke-width="1.4"/>
    <!-- Diagonal points -->
    <polygon points="34,34 96,96 88,92 92,88" fill="#b3823a" stroke="#4a2d10" stroke-width="1"/>
    <polygon points="166,34 104,96 108,88 112,92" fill="#f5dfa8" stroke="#4a2d10" stroke-width="1"/>
    <polygon points="34,166 96,104 92,108 88,112" fill="#f5dfa8" stroke="#4a2d10" stroke-width="1"/>
    <polygon points="166,166 104,104 112,108 108,112" fill="#b3823a" stroke="#4a2d10" stroke-width="1"/>
    <!-- Cardinal text -->
    <text x="100" y="30"  text-anchor="middle" font-family="Georgia, serif" font-weight="bold"
          font-size="18" fill="#2a1806">N</text>
    <text x="100" y="178" text-anchor="middle" font-family="Georgia, serif" font-weight="bold"
          font-size="18" fill="#2a1806">S</text>
    <text x="24"  y="106" text-anchor="middle" font-family="Georgia, serif" font-weight="bold"
          font-size="18" fill="#2a1806">W</text>
    <text x="176" y="106" text-anchor="middle" font-family="Georgia, serif" font-weight="bold"
          font-size="18" fill="#2a1806">E</text>
    <!-- Decorative ring with a fleur-de-lis on N -->
    <path d="M 100,10 Q 96,0 100,-6 Q 104,0 100,10 Z"
          transform="translate(0,12)" fill="#2a1806"/>
  </symbol>

  <!-- Sea-monster / fish flourish (decorative, for empty corners) -->
  <symbol id="seaMonster" viewBox="0 0 140 60">
    <path d="M 10,38 Q 30,10 65,22 Q 95,32 120,18 L 130,28 Q 110,40 85,36
             Q 55,32 30,48 Q 20,50 10,38 Z"
          fill="#b3823a" stroke="#4a2d10" stroke-width="1.5"/>
    <circle cx="112" cy="24" r="2.5" fill="#2a1806"/>
    <path d="M 22,38 L 10,48 L 18,40 L 10,30 Z" fill="#b3823a" stroke="#4a2d10" stroke-width="1.2"/>
    <path d="M 70,30 q 2,-6 6,-4 M 82,26 q 3,-5 7,-2 M 58,32 q 2,-4 6,-2"
          stroke="#4a2d10" stroke-width="0.8" fill="none"/>
  </symbol>

  </defs>

  <!-- ============== Parchment frame ============== -->
  <path d="M28.0,28.0 L58.7,15.4 L76.1,29.3 L107.3,28.3 L170.1,12.5 L208.8,39.8 L251.5,32.6 L312.5,24.3 L304.6,40.9 L349.6,14.2 L435.2,16.5 L462.1,23.4 L458.3,12.1 L537.2,25.4 L569.7,26.3 L620.1,35.2 L657.7,28.9 L708.0,20.4 L704.4,25.1 L730.7,27.6 L811.8,37.5 L865.7,21.3 L882.2,30.9 L936.3,44.0 L968.6,12.2 L1008.5,45.8 L1021.7,23.9 L1034.1,26.6 L1090.5,12.1 L1122.3,18.9 L1207.9,12.9 L1234.0,41.8 L1284.0,20.0 L1302.2,41.8 L1313.5,16.3 L1364.3,27.5 L1401.3,10.1 L1457.2,30.4 L1508.9,28.6 L1552.3,11.9 L1572.0,28.0 L1558.5,84.9 L1575.6,91.4 L1587.8,139.9 L1584.2,164.0 L1590.0,191.2 L1576.9,229.1 L1567.9,305.0 L1577.5,319.0 L1559.4,363.8 L1572.6,399.5 L1577.7,424.6 L1584.2,491.1 L1571.0,537.3 L1589.0,564.4 L1558.9,625.8 L1576.8,620.5 L1570.8,694.3 L1582.0,712.8 L1559.3,780.8 L1563.4,799.8 L1577.2,820.2 L1579.9,840.5 L1555.6,912.8 L1554.4,972.3 L1582.1,969.7 L1582.6,1008.1 L1559.7,1075.5 L1561.2,1094.4 L1557.2,1146.9 L1572.0,1172.0 L1524.4,1172.8 L1470.9,1178.0 L1429.0,1175.7 L1396.6,1163.9 L1393.9,1184.6 L1314.9,1184.7 L1275.1,1166.3 L1269.9,1185.3 L1195.0,1166.6 L1151.8,1174.4 L1132.2,1182.4 L1119.9,1181.3 L1092.4,1174.9 L1007.1,1177.3 L989.4,1157.4 L928.0,1171.9 L915.5,1189.3 L890.8,1189.9 L854.3,1173.0 L796.1,1178.3 L765.9,1161.8 L723.5,1181.1 L666.2,1171.7 L630.7,1157.2 L599.8,1171.8 L555.8,1173.7 L527.2,1156.1 L472.8,1156.1 L442.1,1156.0 L437.6,1185.6 L410.3,1181.3 L318.4,1161.8 L316.3,1164.2 L272.3,1158.2 L240.4,1155.7 L176.5,1154.4 L164.4,1174.5 L118.8,1183.0 L51.8,1189.3 L28.0,1172.0 L10.7,1140.0 L28.4,1098.8 L38.4,1026.0 L19.6,1046.8 L19.7,976.0 L42.8,940.4 L15.4,907.7 L35.2,871.9 L34.8,850.5 L43.8,807.5 L13.0,731.6 L41.1,735.2 L29.9,675.1 L14.7,648.2 L13.9,618.7 L17.3,586.2 L37.3,536.9 L16.4,488.7 L19.0,479.2 L29.8,404.9 L43.6,380.2 L25.6,318.6 L24.2,279.5 L45.4,251.4 L35.4,200.7 L22.5,193.8 L12.5,154.5 L15.9,123.8 L41.3,47.1 L28.0,28.0 Z" fill="#2a1806" opacity="0.35"
        transform="translate(6 10)" pointer-events="none"/>
  <path d="M28.0,28.0 L58.7,15.4 L76.1,29.3 L107.3,28.3 L170.1,12.5 L208.8,39.8 L251.5,32.6 L312.5,24.3 L304.6,40.9 L349.6,14.2 L435.2,16.5 L462.1,23.4 L458.3,12.1 L537.2,25.4 L569.7,26.3 L620.1,35.2 L657.7,28.9 L708.0,20.4 L704.4,25.1 L730.7,27.6 L811.8,37.5 L865.7,21.3 L882.2,30.9 L936.3,44.0 L968.6,12.2 L1008.5,45.8 L1021.7,23.9 L1034.1,26.6 L1090.5,12.1 L1122.3,18.9 L1207.9,12.9 L1234.0,41.8 L1284.0,20.0 L1302.2,41.8 L1313.5,16.3 L1364.3,27.5 L1401.3,10.1 L1457.2,30.4 L1508.9,28.6 L1552.3,11.9 L1572.0,28.0 L1558.5,84.9 L1575.6,91.4 L1587.8,139.9 L1584.2,164.0 L1590.0,191.2 L1576.9,229.1 L1567.9,305.0 L1577.5,319.0 L1559.4,363.8 L1572.6,399.5 L1577.7,424.6 L1584.2,491.1 L1571.0,537.3 L1589.0,564.4 L1558.9,625.8 L1576.8,620.5 L1570.8,694.3 L1582.0,712.8 L1559.3,780.8 L1563.4,799.8 L1577.2,820.2 L1579.9,840.5 L1555.6,912.8 L1554.4,972.3 L1582.1,969.7 L1582.6,1008.1 L1559.7,1075.5 L1561.2,1094.4 L1557.2,1146.9 L1572.0,1172.0 L1524.4,1172.8 L1470.9,1178.0 L1429.0,1175.7 L1396.6,1163.9 L1393.9,1184.6 L1314.9,1184.7 L1275.1,1166.3 L1269.9,1185.3 L1195.0,1166.6 L1151.8,1174.4 L1132.2,1182.4 L1119.9,1181.3 L1092.4,1174.9 L1007.1,1177.3 L989.4,1157.4 L928.0,1171.9 L915.5,1189.3 L890.8,1189.9 L854.3,1173.0 L796.1,1178.3 L765.9,1161.8 L723.5,1181.1 L666.2,1171.7 L630.7,1157.2 L599.8,1171.8 L555.8,1173.7 L527.2,1156.1 L472.8,1156.1 L442.1,1156.0 L437.6,1185.6 L410.3,1181.3 L318.4,1161.8 L316.3,1164.2 L272.3,1158.2 L240.4,1155.7 L176.5,1154.4 L164.4,1174.5 L118.8,1183.0 L51.8,1189.3 L28.0,1172.0 L10.7,1140.0 L28.4,1098.8 L38.4,1026.0 L19.6,1046.8 L19.7,976.0 L42.8,940.4 L15.4,907.7 L35.2,871.9 L34.8,850.5 L43.8,807.5 L13.0,731.6 L41.1,735.2 L29.9,675.1 L14.7,648.2 L13.9,618.7 L17.3,586.2 L37.3,536.9 L16.4,488.7 L19.0,479.2 L29.8,404.9 L43.6,380.2 L25.6,318.6 L24.2,279.5 L45.4,251.4 L35.4,200.7 L22.5,193.8 L12.5,154.5 L15.9,123.8 L41.3,47.1 L28.0,28.0 Z" fill="url(#parchmentFill)" filter="url(#mapDrop)"/>
  <path d="M28.0,28.0 L58.7,15.4 L76.1,29.3 L107.3,28.3 L170.1,12.5 L208.8,39.8 L251.5,32.6 L312.5,24.3 L304.6,40.9 L349.6,14.2 L435.2,16.5 L462.1,23.4 L458.3,12.1 L537.2,25.4 L569.7,26.3 L620.1,35.2 L657.7,28.9 L708.0,20.4 L704.4,25.1 L730.7,27.6 L811.8,37.5 L865.7,21.3 L882.2,30.9 L936.3,44.0 L968.6,12.2 L1008.5,45.8 L1021.7,23.9 L1034.1,26.6 L1090.5,12.1 L1122.3,18.9 L1207.9,12.9 L1234.0,41.8 L1284.0,20.0 L1302.2,41.8 L1313.5,16.3 L1364.3,27.5 L1401.3,10.1 L1457.2,30.4 L1508.9,28.6 L1552.3,11.9 L1572.0,28.0 L1558.5,84.9 L1575.6,91.4 L1587.8,139.9 L1584.2,164.0 L1590.0,191.2 L1576.9,229.1 L1567.9,305.0 L1577.5,319.0 L1559.4,363.8 L1572.6,399.5 L1577.7,424.6 L1584.2,491.1 L1571.0,537.3 L1589.0,564.4 L1558.9,625.8 L1576.8,620.5 L1570.8,694.3 L1582.0,712.8 L1559.3,780.8 L1563.4,799.8 L1577.2,820.2 L1579.9,840.5 L1555.6,912.8 L1554.4,972.3 L1582.1,969.7 L1582.6,1008.1 L1559.7,1075.5 L1561.2,1094.4 L1557.2,1146.9 L1572.0,1172.0 L1524.4,1172.8 L1470.9,1178.0 L1429.0,1175.7 L1396.6,1163.9 L1393.9,1184.6 L1314.9,1184.7 L1275.1,1166.3 L1269.9,1185.3 L1195.0,1166.6 L1151.8,1174.4 L1132.2,1182.4 L1119.9,1181.3 L1092.4,1174.9 L1007.1,1177.3 L989.4,1157.4 L928.0,1171.9 L915.5,1189.3 L890.8,1189.9 L854.3,1173.0 L796.1,1178.3 L765.9,1161.8 L723.5,1181.1 L666.2,1171.7 L630.7,1157.2 L599.8,1171.8 L555.8,1173.7 L527.2,1156.1 L472.8,1156.1 L442.1,1156.0 L437.6,1185.6 L410.3,1181.3 L318.4,1161.8 L316.3,1164.2 L272.3,1158.2 L240.4,1155.7 L176.5,1154.4 L164.4,1174.5 L118.8,1183.0 L51.8,1189.3 L28.0,1172.0 L10.7,1140.0 L28.4,1098.8 L38.4,1026.0 L19.6,1046.8 L19.7,976.0 L42.8,940.4 L15.4,907.7 L35.2,871.9 L34.8,850.5 L43.8,807.5 L13.0,731.6 L41.1,735.2 L29.9,675.1 L14.7,648.2 L13.9,618.7 L17.3,586.2 L37.3,536.9 L16.4,488.7 L19.0,479.2 L29.8,404.9 L43.6,380.2 L25.6,318.6 L24.2,279.5 L45.4,251.4 L35.4,200.7 L22.5,193.8 L12.5,154.5 L15.9,123.8 L41.3,47.1 L28.0,28.0 Z" fill="#b3823a" opacity="0.28" filter="url(#paperGrain)" pointer-events="none"/>

  <!-- Stains on the paper -->
  <g clip-path="url(#paperClip)" pointer-events="none">
    <ellipse cx="517" cy="358" rx="32" ry="21" transform="rotate(28 517 358)" fill="#4a2d10" opacity="0.15"/>
    <ellipse cx="492" cy="1034" rx="64" ry="23" transform="rotate(44 492 1034)" fill="#4a2d10" opacity="0.22"/>
    <ellipse cx="552" cy="465" rx="18" ry="19" transform="rotate(85 552 465)" fill="#4a2d10" opacity="0.16"/>
    <ellipse cx="411" cy="604" rx="18" ry="16" transform="rotate(16 411 604)" fill="#4a2d10" opacity="0.15"/>
    <ellipse cx="204" cy="151" rx="32" ry="16" transform="rotate(105 204 151)" fill="#4a2d10" opacity="0.16"/>
    <ellipse cx="1126" cy="748" rx="52" ry="31" transform="rotate(70 1126 748)" fill="#4a2d10" opacity="0.14"/>
    <ellipse cx="1430" cy="270" rx="52" ry="25" transform="rotate(8 1430 270)" fill="#4a2d10" opacity="0.20"/>
    <ellipse cx="1310" cy="720" rx="52" ry="29" transform="rotate(25 1310 720)" fill="#4a2d10" opacity="0.16"/>
    <ellipse cx="806" cy="915" rx="56" ry="30" transform="rotate(105 806 915)" fill="#4a2d10" opacity="0.21"/>
    <ellipse cx="1038" cy="782" rx="29" ry="11" transform="rotate(24 1038 782)" fill="#4a2d10" opacity="0.14"/>
    <ellipse cx="286" cy="916" rx="44" ry="25" transform="rotate(113 286 916)" fill="#4a2d10" opacity="0.18"/>
    <ellipse cx="786" cy="133" rx="55" ry="28" transform="rotate(91 786 133)" fill="#4a2d10" opacity="0.16"/>
    <ellipse cx="1007" cy="192" rx="53" ry="16" transform="rotate(13 1007 192)" fill="#4a2d10" opacity="0.13"/>
    <ellipse cx="1098" cy="323" rx="53" ry="33" transform="rotate(89 1098 323)" fill="#4a2d10" opacity="0.15"/>
    <ellipse cx="773" cy="773" rx="54" ry="25" transform="rotate(116 773 773)" fill="#4a2d10" opacity="0.11"/>
    <ellipse cx="342" cy="369" rx="53" ry="17" transform="rotate(102 342 369)" fill="#4a2d10" opacity="0.10"/>
    <ellipse cx="229" cy="383" rx="50" ry="27" transform="rotate(122 229 383)" fill="#4a2d10" opacity="0.13"/>
    <ellipse cx="821" cy="567" rx="40" ry="13" transform="rotate(161 821 567)" fill="#4a2d10" opacity="0.12"/>
    <ellipse cx="1422" cy="1010" rx="19" ry="21" transform="rotate(148 1422 1010)" fill="#4a2d10" opacity="0.22"/>
    <ellipse cx="734" cy="383" rx="28" ry="33" transform="rotate(38 734 383)" fill="#4a2d10" opacity="0.17"/>
  </g>

  <!-- Double-ruled inner border -->
  <rect x="92" y="92" width="1416" height="1016"
        fill="none" stroke="#4a2d10" stroke-width="3"/>
  <rect x="106" y="106" width="1388" height="988"
        fill="none" stroke="#4a2d10" stroke-width="0.8" stroke-dasharray="4 3"/>

  <!-- Corner flourishes -->
  
    <g stroke="#4a2d10" stroke-width="1.3" fill="none" opacity="0.85">
      <path d="M 108,108 q 20,6 36,22 q 6,10 6,22"/>
      <path d="M 108,108 q 6,20 22,36 q 10,6 22,6"/>
      <circle cx="136" cy="136" r="2.5" fill="#4a2d10"/>
    </g>
  
    <g stroke="#4a2d10" stroke-width="1.3" fill="none" opacity="0.85">
      <path d="M 1492,108 q -20,6 -36,22 q -6,10 -6,22"/>
      <path d="M 1492,108 q -6,20 -22,36 q -10,6 -22,6"/>
      <circle cx="1464" cy="136" r="2.5" fill="#4a2d10"/>
    </g>
  
    <g stroke="#4a2d10" stroke-width="1.3" fill="none" opacity="0.85">
      <path d="M 108,1092 q 20,-6 36,-22 q 6,-10 6,-22"/>
      <path d="M 108,1092 q 6,-20 22,-36 q 10,-6 22,-6"/>
      <circle cx="136" cy="1064" r="2.5" fill="#4a2d10"/>
    </g>
  
    <g stroke="#4a2d10" stroke-width="1.3" fill="none" opacity="0.85">
      <path d="M 1492,1092 q -20,-6 -36,-22 q -6,-10 -6,-22"/>
      <path d="M 1492,1092 q -6,-20 -22,-36 q -10,-6 -22,-6"/>
      <circle cx="1464" cy="1064" r="2.5" fill="#4a2d10"/>
    </g>

  <!-- ============== Map content ============== -->
  <!-- Mountains (rear) -->
  <g id="mountains">
    <use href="#mountain" x="430" y="259" width="260" height="161"/>
    <use href="#mountain" x="620" y="331" width="320" height="198"/>
    <use href="#mountain" x="970" y="382" width="220" height="136"/>
    <use href="#mountain" x="130" y="532" width="220" height="136"/>
    <use href="#mountain" x="420" y="696" width="240" height="149"/>
    <use href="#mountain" x="790" y="679" width="260" height="161"/>
    <use href="#mountain" x="1080" y="648" width="200" height="124"/>
    <use href="#mountain" x="250" y="832" width="220" height="136"/>
  </g>

  <!-- Pine/fir forest clusters (in front of mountains) -->
  <g id="forest" opacity="0.92">
    <use href="#pine" x="105" y="344" width="32" height="46"/>
    <use href="#pine2" x="162" y="375" width="32" height="46"/>
    <use href="#pine" x="174" y="416" width="24" height="34"/>
    <use href="#pine" x="199" y="366" width="28" height="40"/>
    <use href="#pine" x="264" y="349" width="24" height="34"/>
    <use href="#pine2" x="234" y="400" width="32" height="46"/>
    <use href="#pine2" x="160" y="411" width="28" height="40"/>
    <use href="#pine2" x="222" y="411" width="32" height="46"/>
    <use href="#pine2" x="121" y="345" width="32" height="46"/>
    <use href="#pine2" x="223" y="387" width="24" height="34"/>
    <use href="#pine2" x="471" y="522" width="24" height="34"/>
    <use href="#pine2" x="407" y="524" width="24" height="34"/>
    <use href="#pine2" x="405" y="544" width="28" height="40"/>
    <use href="#pine2" x="469" y="532" width="32" height="46"/>
    <use href="#pine" x="452" y="503" width="32" height="46"/>
    <use href="#pine" x="450" y="514" width="28" height="40"/>
    <use href="#pine2" x="442" y="485" width="32" height="46"/>
    <use href="#pine" x="369" y="529" width="32" height="46"/>
    <use href="#pine2" x="438" y="510" width="24" height="34"/>
    <use href="#pine2" x="493" y="483" width="32" height="46"/>
    <use href="#pine" x="331" y="535" width="28" height="40"/>
    <use href="#pine" x="397" y="477" width="32" height="46"/>
    <use href="#pine" x="374" y="521" width="32" height="46"/>
    <use href="#pine2" x="402" y="496" width="32" height="46"/>
    <use href="#pine" x="618" y="600" width="24" height="34"/>
    <use href="#pine2" x="597" y="573" width="32" height="46"/>
    <use href="#pine2" x="718" y="594" width="28" height="40"/>
    <use href="#pine2" x="627" y="556" width="28" height="40"/>
    <use href="#pine2" x="745" y="552" width="24" height="34"/>
    <use href="#pine" x="678" y="525" width="32" height="46"/>
    <use href="#pine" x="695" y="578" width="28" height="40"/>
    <use href="#pine2" x="695" y="602" width="24" height="34"/>
    <use href="#pine" x="732" y="597" width="28" height="40"/>
    <use href="#pine" x="617" y="539" width="24" height="34"/>
    <use href="#pine2" x="589" y="554" width="24" height="34"/>
    <use href="#pine" x="573" y="592" width="32" height="46"/>
    <use href="#pine2" x="667" y="561" width="24" height="34"/>
    <use href="#pine" x="620" y="572" width="28" height="40"/>
    <use href="#pine" x="617" y="509" width="24" height="34"/>
    <use href="#pine" x="576" y="599" width="32" height="46"/>
    <use href="#pine" x="993" y="582" width="24" height="34"/>
    <use href="#pine" x="894" y="601" width="32" height="46"/>
    <use href="#pine2" x="932" y="582" width="32" height="46"/>
    <use href="#pine2" x="875" y="554" width="28" height="40"/>
    <use href="#pine" x="936" y="516" width="32" height="46"/>
    <use href="#pine" x="910" y="521" width="24" height="34"/>
    <use href="#pine" x="955" y="579" width="28" height="40"/>
    <use href="#pine2" x="873" y="596" width="32" height="46"/>
    <use href="#pine2" x="997" y="555" width="32" height="46"/>
    <use href="#pine2" x="975" y="507" width="24" height="34"/>
    <use href="#pine" x="1021" y="540" width="24" height="34"/>
    <use href="#pine2" x="1013" y="521" width="24" height="34"/>
    <use href="#pine" x="885" y="596" width="28" height="40"/>
    <use href="#pine2" x="873" y="534" width="28" height="40"/>
    <use href="#pine" x="1255" y="417" width="24" height="34"/>
    <use href="#pine" x="1299" y="421" width="28" height="40"/>
    <use href="#pine2" x="1320" y="429" width="24" height="34"/>
    <use href="#pine2" x="1274" y="430" width="32" height="46"/>
    <use href="#pine" x="1263" y="437" width="28" height="40"/>
    <use href="#pine2" x="1309" y="460" width="24" height="34"/>
    <use href="#pine" x="1343" y="395" width="32" height="46"/>
    <use href="#pine" x="1330" y="428" width="28" height="40"/>
    <use href="#pine2" x="1283" y="415" width="28" height="40"/>
    <use href="#pine" x="1234" y="439" width="28" height="40"/>
    <use href="#pine2" x="365" y="805" width="32" height="46"/>
    <use href="#pine" x="340" y="832" width="24" height="34"/>
    <use href="#pine2" x="307" y="737" width="24" height="34"/>
    <use href="#pine2" x="217" y="730" width="28" height="40"/>
    <use href="#pine" x="276" y="824" width="28" height="40"/>
    <use href="#pine2" x="385" y="793" width="32" height="46"/>
    <use href="#pine2" x="347" y="814" width="28" height="40"/>
    <use href="#pine" x="288" y="786" width="28" height="40"/>
    <use href="#pine" x="279" y="821" width="32" height="46"/>
    <use href="#pine2" x="243" y="802" width="28" height="40"/>
    <use href="#pine2" x="359" y="808" width="24" height="34"/>
    <use href="#pine" x="315" y="823" width="28" height="40"/>
    <use href="#pine2" x="528" y="930" width="28" height="40"/>
    <use href="#pine" x="633" y="889" width="24" height="34"/>
    <use href="#pine2" x="604" y="895" width="24" height="34"/>
    <use href="#pine" x="630" y="842" width="24" height="34"/>
    <use href="#pine" x="586" y="924" width="24" height="34"/>
    <use href="#pine2" x="651" y="898" width="24" height="34"/>
    <use href="#pine" x="638" y="911" width="24" height="34"/>
    <use href="#pine2" x="607" y="915" width="24" height="34"/>
    <use href="#pine2" x="553" y="848" width="28" height="40"/>
    <use href="#pine" x="622" y="891" width="24" height="34"/>
    <use href="#pine2" x="634" y="832" width="32" height="46"/>
    <use href="#pine2" x="644" y="871" width="24" height="34"/>
    <use href="#pine2" x="672" y="929" width="28" height="40"/>
    <use href="#pine" x="616" y="836" width="32" height="46"/>
    <use href="#pine" x="833" y="953" width="24" height="34"/>
    <use href="#pine" x="762" y="923" width="28" height="40"/>
    <use href="#pine2" x="923" y="878" width="32" height="46"/>
    <use href="#pine" x="890" y="962" width="28" height="40"/>
    <use href="#pine" x="863" y="877" width="32" height="46"/>
    <use href="#pine2" x="821" y="870" width="24" height="34"/>
    <use href="#pine2" x="872" y="912" width="28" height="40"/>
    <use href="#pine" x="920" y="974" width="24" height="34"/>
    <use href="#pine2" x="757" y="914" width="24" height="34"/>
    <use href="#pine2" x="819" y="880" width="32" height="46"/>
    <use href="#pine" x="907" y="950" width="28" height="40"/>
    <use href="#pine" x="871" y="963" width="32" height="46"/>
    <use href="#pine2" x="1163" y="857" width="28" height="40"/>
    <use href="#pine2" x="1118" y="829" width="24" height="34"/>
    <use href="#pine" x="1007" y="856" width="32" height="46"/>
    <use href="#pine2" x="1058" y="930" width="28" height="40"/>
    <use href="#pine2" x="1058" y="898" width="28" height="40"/>
    <use href="#pine2" x="1108" y="860" width="28" height="40"/>
    <use href="#pine2" x="1110" y="873" width="24" height="34"/>
    <use href="#pine" x="1041" y="896" width="28" height="40"/>
    <use href="#pine" x="1037" y="887" width="32" height="46"/>
    <use href="#pine2" x="1081" y="829" width="32" height="46"/>
    <use href="#pine2" x="1056" y="895" width="32" height="46"/>
    <use href="#pine" x="1037" y="929" width="28" height="40"/>
    <use href="#pine2" x="1136" y="850" width="32" height="46"/>
    <use href="#pine" x="1152" y="923" width="32" height="46"/>
    <use href="#pine2" x="1412" y="820" width="28" height="40"/>
    <use href="#pine" x="1364" y="807" width="28" height="40"/>
    <use href="#pine2" x="1382" y="784" width="28" height="40"/>
    <use href="#pine2" x="1350" y="821" width="28" height="40"/>
    <use href="#pine2" x="1307" y="770" width="24" height="34"/>
    <use href="#pine" x="1360" y="797" width="28" height="40"/>
    <use href="#pine" x="1270" y="856" width="32" height="46"/>
    <use href="#pine" x="1411" y="858" width="28" height="40"/>
    <use href="#pine2" x="1255" y="858" width="32" height="46"/>
    <use href="#pine" x="1377" y="863" width="24" height="34"/>
  </g>

  <!-- Sea-monster flourish, for empty space (upper-left) -->
  <use href="#seaMonster" x="210" y="430" width="150" height="60"/>
  <!-- and a smaller fish decoration bottom-right -->
  <use href="#seaMonster" x="1100" y="1000" width="120" height="50" transform="scale(-1 1) translate(-1220 0)"/>

  <!-- Castles -->
  <g id="castles">
    
    <g transform="translate(130,150)">
      <use href="#castle" width="140" height="140"/>
      <text x="70" y="160" text-anchor="middle" font-family="Georgia, serif" font-style="italic"
            font-size="22" fill="#2a1806" font-weight="bold">Zamek Ogrodzieniec</text>
    </g>

    <g transform="translate(1250,270)">
      <use href="#castle" width="140" height="140"/>
      <text x="70" y="160" text-anchor="middle" font-family="Georgia, serif" font-style="italic"
            font-size="22" fill="#2a1806" font-weight="bold">Zamek Olsztyn</text>
    </g>

    <g transform="translate(110,760)">
      <use href="#castle" width="140" height="140"/>
      <text x="70" y="160" text-anchor="middle" font-family="Georgia, serif" font-style="italic"
            font-size="22" fill="#2a1806" font-weight="bold">Zamek Mirów</text>
    </g>

    <g transform="translate(1250,770)">
      <use href="#castle" width="140" height="140"/>
      <text x="70" y="160" text-anchor="middle" font-family="Georgia, serif" font-style="italic"
            font-size="22" fill="#2a1806" font-weight="bold">Zamek Bobolice</text>
    </g>
  </g>

  <!-- Main winding trail (dashed red — treasure-map style) -->
  <g id="paths" fill="none" stroke="#a83a2a" stroke-width="4.5"
     stroke-linecap="round" stroke-dasharray="10 6" opacity="0.85">
    <path d="M 280,360 C 360,360 440,520 540,560 S 720,580 820,560 S 1000,580 1120,620 S 1240,720 1180,820 S 960,900 780,870 S 560,880 460,820"/>
  </g>
  <!-- Sub-branch paths from JS -->
  <g id="branches" fill="none" stroke="#a83a2a" stroke-width="3"
     stroke-linecap="round" stroke-dasharray="7 5" opacity="0.8"></g>

  <!-- Static cottage icons + labels drawn right into the SVG so the layout is
       identical across all viewers, including the cairosvg preview. -->
  <g id="cottages-static">
    
    <g data-slug="fredek" class="cottage-pin" transform="translate(1174,610)">
      <use href="#cottageHouse" width="52" height="56"/>
      <text x="26" y="78" text-anchor="middle" font-family="Georgia, serif" font-style="italic"
            font-weight="bold" font-size="20" fill="#2a1806" class="cottage-label"
            paint-order="stroke" stroke="#f5dfa8" stroke-width="4" stroke-linejoin="round">Fredek</text>
    </g>

    <g data-slug="iwo" class="cottage-pin" transform="translate(294,950)">
      <use href="#cottageHouse" width="52" height="56"/>
      <text x="26" y="78" text-anchor="middle" font-family="Georgia, serif" font-style="italic"
            font-weight="bold" font-size="20" fill="#2a1806" class="cottage-label"
            paint-order="stroke" stroke="#f5dfa8" stroke-width="4" stroke-linejoin="round">Iwo</text>
    </g>

    <g data-slug="zamczysko" class="cottage-pin" transform="translate(794,530)">
      <use href="#cottageHouse" width="52" height="56"/>
      <text x="26" y="78" text-anchor="middle" font-family="Georgia, serif" font-style="italic"
            font-weight="bold" font-size="20" fill="#2a1806" class="cottage-label"
            paint-order="stroke" stroke="#f5dfa8" stroke-width="4" stroke-linejoin="round">Góra Zamczysko</text>
    </g>

    <g data-slug="teodor" class="cottage-pin" transform="translate(794,370)">
      <use href="#cottageHouse" width="52" height="56"/>
      <text x="26" y="78" text-anchor="middle" font-family="Georgia, serif" font-style="italic"
            font-weight="bold" font-size="20" fill="#2a1806" class="cottage-label"
            paint-order="stroke" stroke="#f5dfa8" stroke-width="4" stroke-linejoin="round">Teodor</text>
    </g>

    <g data-slug="tupak" class="cottage-pin" transform="translate(1214,870)">
      <use href="#cottageHouse" width="52" height="56"/>
      <text x="26" y="78" text-anchor="middle" font-family="Georgia, serif" font-style="italic"
            font-weight="bold" font-size="20" fill="#2a1806" class="cottage-label"
            paint-order="stroke" stroke="#f5dfa8" stroke-width="4" stroke-linejoin="round">Tupak</text>
    </g>

    <g data-slug="elfka-z-duza-d" class="cottage-pin" transform="translate(394,610)">
      <use href="#cottageHouse" width="52" height="56"/>
      <text x="26" y="78" text-anchor="middle" font-family="Georgia, serif" font-style="italic"
            font-weight="bold" font-size="20" fill="#2a1806" class="cottage-label"
            paint-order="stroke" stroke="#f5dfa8" stroke-width="4" stroke-linejoin="round">Elfka</text>
    </g>

    <g data-slug="pazurek" class="cottage-pin" transform="translate(1054,510)">
      <use href="#cottageHouse" width="52" height="56"/>
      <text x="26" y="78" text-anchor="middle" font-family="Georgia, serif" font-style="italic"
            font-weight="bold" font-size="20" fill="#2a1806" class="cottage-label"
            paint-order="stroke" stroke="#f5dfa8" stroke-width="4" stroke-linejoin="round">Pazurek</text>
    </g>

    <g data-slug="halinka" class="cottage-pin" transform="translate(1174,350)">
      <use href="#cottageHouse" width="52" height="56"/>
      <text x="26" y="78" text-anchor="middle" font-family="Georgia, serif" font-style="italic"
            font-weight="bold" font-size="20" fill="#2a1806" class="cottage-label"
            paint-order="stroke" stroke="#f5dfa8" stroke-width="4" stroke-linejoin="round">Halinka</text>
    </g>

    <g data-slug="gwerda-filinek" class="cottage-pin" transform="translate(514,520)">
      <use href="#cottageHouse" width="52" height="56"/>
      <text x="26" y="78" text-anchor="middle" font-family="Georgia, serif" font-style="italic"
            font-weight="bold" font-size="20" fill="#2a1806" class="cottage-label"
            paint-order="stroke" stroke="#f5dfa8" stroke-width="4" stroke-linejoin="round">Gwerda i Filinek</text>
    </g>

    <g data-slug="straznik-zamku" class="cottage-pin" transform="translate(1054,250)">
      <use href="#cottageHouse" width="52" height="56"/>
      <text x="26" y="78" text-anchor="middle" font-family="Georgia, serif" font-style="italic"
            font-weight="bold" font-size="20" fill="#2a1806" class="cottage-label"
            paint-order="stroke" stroke="#f5dfa8" stroke-width="4" stroke-linejoin="round">Strażnik Zamku</text>
    </g>

    <g data-slug="dwaj-bracia" class="cottage-pin" transform="translate(534,820)">
      <use href="#cottageHouse" width="52" height="56"/>
      <text x="26" y="78" text-anchor="middle" font-family="Georgia, serif" font-style="italic"
            font-weight="bold" font-size="20" fill="#2a1806" class="cottage-label"
            paint-order="stroke" stroke="#f5dfa8" stroke-width="4" stroke-linejoin="round">Dwaj Bracia</text>
    </g>

    <g data-slug="czubata-myszka" class="cottage-pin" transform="translate(454,390)">
      <use href="#cottageHouse" width="52" height="56"/>
      <text x="26" y="78" text-anchor="middle" font-family="Georgia, serif" font-style="italic"
            font-weight="bold" font-size="20" fill="#2a1806" class="cottage-label"
            paint-order="stroke" stroke="#f5dfa8" stroke-width="4" stroke-linejoin="round">Czubata i Myszka</text>
    </g>

    <g data-slug="zielonowlosy" class="cottage-pin" transform="translate(304,350)">
      <use href="#cottageHouse" width="52" height="56"/>
      <text x="26" y="78" text-anchor="middle" font-family="Georgia, serif" font-style="italic"
            font-weight="bold" font-size="20" fill="#2a1806" class="cottage-label"
            paint-order="stroke" stroke="#f5dfa8" stroke-width="4" stroke-linejoin="round">Zielonowłosy</text>
    </g>

    <g data-slug="zaprasza" class="cottage-pin" transform="translate(694,670)">
      <use href="#cottageHouse" width="52" height="56"/>
      <text x="26" y="78" text-anchor="middle" font-family="Georgia, serif" font-style="italic"
            font-weight="bold" font-size="20" fill="#2a1806" class="cottage-label"
            paint-order="stroke" stroke="#f5dfa8" stroke-width="4" stroke-linejoin="round">Zaprasza</text>
    </g>

    <g data-slug="samotny" class="cottage-pin" transform="translate(954,670)">
      <use href="#cottageHouse" width="52" height="56"/>
      <text x="26" y="78" text-anchor="middle" font-family="Georgia, serif" font-style="italic"
            font-weight="bold" font-size="20" fill="#2a1806" class="cottage-label"
            paint-order="stroke" stroke="#f5dfa8" stroke-width="4" stroke-linejoin="round">Samotny Elf</text>
    </g>

    <g data-slug="skalne-iglice" class="cottage-pin" transform="translate(1094,770)">
      <use href="#cottageHouse" width="52" height="56"/>
      <text x="26" y="78" text-anchor="middle" font-family="Georgia, serif" font-style="italic"
            font-weight="bold" font-size="20" fill="#2a1806" class="cottage-label"
            paint-order="stroke" stroke="#f5dfa8" stroke-width="4" stroke-linejoin="round">Skalne Iglice</text>
    </g>

    <g data-slug="stary-elf" class="cottage-pin" transform="translate(754,840)">
      <use href="#cottageHouse" width="52" height="56"/>
      <text x="26" y="78" text-anchor="middle" font-family="Georgia, serif" font-style="italic"
            font-weight="bold" font-size="20" fill="#2a1806" class="cottage-label"
            paint-order="stroke" stroke="#f5dfa8" stroke-width="4" stroke-linejoin="round">Stary Elf</text>
    </g>

    <g data-slug="straznik-lodu" class="cottage-pin" transform="translate(794,250)">
      <use href="#cottageHouse" width="52" height="56"/>
      <text x="26" y="78" text-anchor="middle" font-family="Georgia, serif" font-style="italic"
            font-weight="bold" font-size="20" fill="#2a1806" class="cottage-label"
            paint-order="stroke" stroke="#f5dfa8" stroke-width="4" stroke-linejoin="round">Strażnik Lodu</text>
    </g>
  </g>

  <!-- Interactive hit layer populated by main.js (transparent overlay that
       receives hover/click; the visible cottage icon is in cottages-static). -->
  <g id="cottages"></g>

  <!-- Compass rose (bottom-left, like classic treasure maps) -->
  <g transform="translate(200,930)" filter="url(#softShadow)">
    <use href="#compass" width="170" height="170"/>
  </g>

  <!-- Title cartouche (top-right) -->
  <g transform="translate(960,140)" filter="url(#softShadow)">
    <path d="M 0,0 H 440 Q 480,0 488,30 L 500,70 Q 508,100 476,108 H 12 Q -20,100 -12,70 L 0,30 Q 8,0 40,0"
          fill="#f5dfa8" stroke="#4a2d10" stroke-width="2.2"/>
    <path d="M 14,16 H 474 Q 486,30 490,60 L 480,90 H 20 L 10,60 Q 14,30 14,16 Z"
          fill="none" stroke="#4a2d10" stroke-width="0.8" stroke-dasharray="3 3"/>
    <text x="250" y="58" text-anchor="middle" font-family="Georgia, serif"
          font-size="42" font-weight="bold" font-style="italic" fill="#2a1806">Chatynkowo</text>
    <text x="250" y="90" text-anchor="middle" font-family="Georgia, serif"
          font-size="17" font-style="italic" fill="#6b4218">~ mapa ukrytych chatynek Elfów ~</text>
  </g>

  <!-- Inner burnt vignette on top of everything (subtle), clipped to paper -->
  <path d="M28.0,28.0 L58.7,15.4 L76.1,29.3 L107.3,28.3 L170.1,12.5 L208.8,39.8 L251.5,32.6 L312.5,24.3 L304.6,40.9 L349.6,14.2 L435.2,16.5 L462.1,23.4 L458.3,12.1 L537.2,25.4 L569.7,26.3 L620.1,35.2 L657.7,28.9 L708.0,20.4 L704.4,25.1 L730.7,27.6 L811.8,37.5 L865.7,21.3 L882.2,30.9 L936.3,44.0 L968.6,12.2 L1008.5,45.8 L1021.7,23.9 L1034.1,26.6 L1090.5,12.1 L1122.3,18.9 L1207.9,12.9 L1234.0,41.8 L1284.0,20.0 L1302.2,41.8 L1313.5,16.3 L1364.3,27.5 L1401.3,10.1 L1457.2,30.4 L1508.9,28.6 L1552.3,11.9 L1572.0,28.0 L1558.5,84.9 L1575.6,91.4 L1587.8,139.9 L1584.2,164.0 L1590.0,191.2 L1576.9,229.1 L1567.9,305.0 L1577.5,319.0 L1559.4,363.8 L1572.6,399.5 L1577.7,424.6 L1584.2,491.1 L1571.0,537.3 L1589.0,564.4 L1558.9,625.8 L1576.8,620.5 L1570.8,694.3 L1582.0,712.8 L1559.3,780.8 L1563.4,799.8 L1577.2,820.2 L1579.9,840.5 L1555.6,912.8 L1554.4,972.3 L1582.1,969.7 L1582.6,1008.1 L1559.7,1075.5 L1561.2,1094.4 L1557.2,1146.9 L1572.0,1172.0 L1524.4,1172.8 L1470.9,1178.0 L1429.0,1175.7 L1396.6,1163.9 L1393.9,1184.6 L1314.9,1184.7 L1275.1,1166.3 L1269.9,1185.3 L1195.0,1166.6 L1151.8,1174.4 L1132.2,1182.4 L1119.9,1181.3 L1092.4,1174.9 L1007.1,1177.3 L989.4,1157.4 L928.0,1171.9 L915.5,1189.3 L890.8,1189.9 L854.3,1173.0 L796.1,1178.3 L765.9,1161.8 L723.5,1181.1 L666.2,1171.7 L630.7,1157.2 L599.8,1171.8 L555.8,1173.7 L527.2,1156.1 L472.8,1156.1 L442.1,1156.0 L437.6,1185.6 L410.3,1181.3 L318.4,1161.8 L316.3,1164.2 L272.3,1158.2 L240.4,1155.7 L176.5,1154.4 L164.4,1174.5 L118.8,1183.0 L51.8,1189.3 L28.0,1172.0 L10.7,1140.0 L28.4,1098.8 L38.4,1026.0 L19.6,1046.8 L19.7,976.0 L42.8,940.4 L15.4,907.7 L35.2,871.9 L34.8,850.5 L43.8,807.5 L13.0,731.6 L41.1,735.2 L29.9,675.1 L14.7,648.2 L13.9,618.7 L17.3,586.2 L37.3,536.9 L16.4,488.7 L19.0,479.2 L29.8,404.9 L43.6,380.2 L25.6,318.6 L24.2,279.5 L45.4,251.4 L35.4,200.7 L22.5,193.8 L12.5,154.5 L15.9,123.8 L41.3,47.1 L28.0,28.0 Z" fill="url(#innerBurn)" pointer-events="none" opacity="0.85"/>
</svg>
