<?xml version="1.0" encoding="UTF-8"?>
<svg xmlns="http://www.w3.org/2000/svg" viewBox="0 0 1600 1200" preserveAspectRatio="xMidYMid meet" role="img" aria-labelledby="mapTitle mapDesc">
  <title id="mapTitle">Baśniowa mapa Chatynkowa</title>
  <desc id="mapDesc">Stylizowana mapa lasu ze ścieżkami prowadzącymi do chatynek Elfów oraz zarysami czterech pobliskich zamków: Ogrodzieniec, Olsztyn, Bobolice i Mirów.</desc>

  <defs>
    <!-- Parchment-forest background -->
    <radialGradient id="mapBg" cx="50%" cy="48%" r="70%">
      <stop offset="0%"  stop-color="#f6edd1"/>
      <stop offset="55%" stop-color="#e6d7a8"/>
      <stop offset="100%" stop-color="#8e9b6b"/>
    </radialGradient>

    <linearGradient id="mistGrad" x1="0" y1="0" x2="0" y2="1">
      <stop offset="0%"  stop-color="#ffffff" stop-opacity="0.55"/>
      <stop offset="100%" stop-color="#ffffff" stop-opacity="0"/>
    </linearGradient>

    <radialGradient id="moonGlow" cx="50%" cy="50%" r="50%">
      <stop offset="0%"  stop-color="#fff6c8" stop-opacity="0.9"/>
      <stop offset="60%" stop-color="#fff6c8" stop-opacity="0.25"/>
      <stop offset="100%" stop-color="#fff6c8" stop-opacity="0"/>
    </radialGradient>

    <!-- A stylised pine-tree symbol -->
    <symbol id="pine" viewBox="0 0 40 80">
      <polygon points="20,2 30,28 24,28 34,54 24,54 38,78 2,78 16,54 6,54 16,28 10,28" fill="#2f5138" stroke="#1d3321" stroke-width="1.2"/>
      <rect x="17" y="76" width="6" height="4" fill="#3a2a1a"/>
    </symbol>

    <!-- Round-canopy oak -->
    <symbol id="oak" viewBox="0 0 50 60">
      <ellipse cx="25" cy="22" rx="24" ry="20" fill="#3a6b3e" stroke="#1f3f24" stroke-width="1.2"/>
      <rect x="22" y="40" width="6" height="18" fill="#3a2a1a"/>
    </symbol>

    <!-- Mushroom decoration -->
    <symbol id="mushroom" viewBox="0 0 24 24">
      <ellipse cx="12" cy="10" rx="10" ry="7" fill="#b83a3a" stroke="#5a1a1a" stroke-width="1"/>
      <circle cx="7"  cy="9"  r="1.4" fill="#fff"/>
      <circle cx="13" cy="7"  r="1.2" fill="#fff"/>
      <circle cx="16" cy="11" r="1.2" fill="#fff"/>
      <path d="M9 14 Q12 22 15 14 Z" fill="#f3e6c3" stroke="#5a1a1a" stroke-width="1"/>
    </symbol>

    <!-- Castle silhouette (re-usable) -->
    <symbol id="castle" viewBox="0 0 160 120">
      <!-- Rocky base -->
      <path d="M0,110 Q30,88 60,102 T120,96 Q148,106 160,112 L160,120 L0,120 Z" fill="#6d6256" stroke="#2c251b" stroke-width="1.6"/>
      <!-- Main keep -->
      <rect x="60" y="40" width="40" height="70" fill="#3a3226" stroke="#140e06" stroke-width="2"/>
      <path d="M60,40 h40 l-4,-10 h-6 v8 h-6 v-8 h-8 v8 h-6 v-8 h-6 z" fill="#3a3226" stroke="#140e06" stroke-width="2"/>
      <!-- Flanking towers -->
      <rect x="30" y="58" width="26" height="52" fill="#453a2b" stroke="#140e06" stroke-width="2"/>
      <path d="M30,58 h26 l-4,-8 h-4 v6 h-4 v-6 h-6 v6 h-4 v-6 h-4 z" fill="#453a2b" stroke="#140e06" stroke-width="2"/>
      <rect x="104" y="52" width="28" height="58" fill="#453a2b" stroke="#140e06" stroke-width="2"/>
      <path d="M104,52 h28 l-4,-8 h-4 v6 h-4 v-6 h-8 v6 h-4 v-6 h-4 z" fill="#453a2b" stroke="#140e06" stroke-width="2"/>
      <!-- Lit windows -->
      <rect x="74" y="62" width="6" height="10" fill="#ffd36b"/>
      <rect x="84" y="62" width="6" height="10" fill="#ffd36b"/>
      <rect x="76" y="82" width="12" height="14" fill="#241a0a"/>
      <rect x="38" y="74" width="6" height="10" fill="#ffd36b"/>
      <rect x="114" y="70" width="6" height="10" fill="#ffd36b"/>
      <!-- Flag -->
      <line x1="80" y1="24" x2="80" y2="8" stroke="#120a03" stroke-width="2"/>
      <path d="M80,8 L98,14 L80,18 Z" fill="#b83a3a" stroke="#2c0a0a" stroke-width="1"/>
    </symbol>

    <!-- Compass rose -->
    <symbol id="compass" viewBox="0 0 120 120">
      <circle cx="60" cy="60" r="54" fill="#f1e2b5" stroke="#5a4523" stroke-width="2"/>
      <circle cx="60" cy="60" r="42" fill="none" stroke="#5a4523" stroke-width="1" stroke-dasharray="2 4"/>
      <polygon points="60,8 66,60 60,56 54,60" fill="#b83a3a" stroke="#2c0a0a" stroke-width="1"/>
      <polygon points="60,112 54,60 60,64 66,60" fill="#3a3226" stroke="#120a03" stroke-width="1"/>
      <polygon points="8,60 60,54 56,60 60,66" fill="#5a4523" stroke="#2c1a06" stroke-width="1"/>
      <polygon points="112,60 60,66 64,60 60,54" fill="#5a4523" stroke="#2c1a06" stroke-width="1"/>
      <text x="60" y="26" text-anchor="middle" font-family="Georgia, serif" font-size="14" fill="#3a2a1a" font-style="italic">N</text>
      <text x="60" y="104" text-anchor="middle" font-family="Georgia, serif" font-size="14" fill="#3a2a1a" font-style="italic">S</text>
      <text x="14" y="65" text-anchor="middle" font-family="Georgia, serif" font-size="14" fill="#3a2a1a" font-style="italic">W</text>
      <text x="106" y="65" text-anchor="middle" font-family="Georgia, serif" font-size="14" fill="#3a2a1a" font-style="italic">E</text>
    </symbol>

    <filter id="parchmentTexture" x="0" y="0" width="100%" height="100%">
      <feTurbulence type="fractalNoise" baseFrequency="0.9" numOctaves="2" seed="3"/>
      <feColorMatrix values="0 0 0 0 0.42
                             0 0 0 0 0.33
                             0 0 0 0 0.19
                             0 0 0 0.07 0"/>
      <feComposite in2="SourceGraphic" operator="in"/>
    </filter>

    <filter id="softShadow" x="-20%" y="-20%" width="140%" height="140%">
      <feGaussianBlur in="SourceAlpha" stdDeviation="3"/>
      <feOffset dx="2" dy="4" result="offsetblur"/>
      <feComponentTransfer><feFuncA type="linear" slope="0.45"/></feComponentTransfer>
      <feMerge><feMergeNode/><feMergeNode in="SourceGraphic"/></feMerge>
    </filter>
  </defs>

  <!-- Parchment background -->
  <rect width="1600" height="1200" fill="url(#mapBg)"/>
  <rect width="1600" height="1200" fill="#a69264" filter="url(#parchmentTexture)" opacity="0.35"/>

  <!-- Moon glow in the upper-right -->
  <circle cx="1360" cy="180" r="260" fill="url(#moonGlow)"/>
  <circle cx="1360" cy="180" r="40" fill="#fff6c8" opacity="0.9"/>

  <!-- Rolling hills (low-contrast silhouettes) -->
  <path d="M0,820 Q200,760 420,790 T820,770 T1200,790 T1600,760 L1600,1200 L0,1200 Z"
        fill="#6e7d54" opacity="0.55"/>
  <path d="M0,900 Q220,840 460,880 T900,860 T1260,880 T1600,850 L1600,1200 L0,1200 Z"
        fill="#546544" opacity="0.55"/>

  <!-- Mist -->
  <rect x="0" y="620" width="1600" height="200" fill="url(#mistGrad)"/>

  <!-- River winding -->
  <path d="M-20,640 C180,610 300,700 520,680 S820,600 1000,680 1260,740 1620,700"
        fill="none" stroke="#7da9c6" stroke-width="14" stroke-linecap="round" opacity="0.85"/>
  <path d="M-20,640 C180,610 300,700 520,680 S820,600 1000,680 1260,740 1620,700"
        fill="none" stroke="#b8dbef" stroke-width="5" stroke-linecap="round" opacity="0.9"/>

  <!-- Forest: scattered pines & oaks -->
  <g id="forest">
    <!-- Thick forest in upper-left -->
    <use href="#pine" x="40"  y="120" width="60" height="120"/>
    <use href="#pine" x="110" y="90"  width="80" height="160"/>
    <use href="#pine" x="200" y="140" width="55" height="110"/>
    <use href="#pine" x="260" y="110" width="70" height="140"/>
    <use href="#pine" x="340" y="150" width="50" height="100"/>
    <use href="#oak"  x="50"  y="260" width="90" height="108"/>
    <use href="#pine" x="150" y="270" width="70" height="140"/>
    <use href="#pine" x="230" y="260" width="60" height="120"/>
    <use href="#oak"  x="310" y="270" width="80" height="96"/>

    <!-- Mid-left -->
    <use href="#pine" x="80"  y="420" width="60" height="120"/>
    <use href="#oak"  x="170" y="440" width="70" height="84"/>
    <use href="#pine" x="260" y="420" width="55" height="110"/>

    <!-- Right border forest -->
    <use href="#pine" x="1340" y="380" width="60" height="120"/>
    <use href="#pine" x="1420" y="350" width="80" height="160"/>
    <use href="#oak"  x="1510" y="400" width="70" height="84"/>
    <use href="#pine" x="1380" y="520" width="60" height="120"/>
    <use href="#pine" x="1460" y="540" width="55" height="110"/>
    <use href="#oak"  x="1520" y="540" width="60" height="72"/>

    <!-- Bottom -->
    <use href="#pine" x="120"  y="1020" width="60" height="120"/>
    <use href="#oak"  x="220"  y="1040" width="70" height="84"/>
    <use href="#pine" x="320"  y="1020" width="55" height="110"/>
    <use href="#pine" x="420"  y="1040" width="50" height="100"/>
    <use href="#oak"  x="520"  y="1050" width="65" height="78"/>
    <use href="#pine" x="640"  y="1010" width="70" height="140"/>
    <use href="#pine" x="760"  y="1040" width="50" height="100"/>
    <use href="#oak"  x="860"  y="1050" width="70" height="84"/>
    <use href="#pine" x="980"  y="1020" width="55" height="110"/>
    <use href="#pine" x="1100" y="1040" width="65" height="130"/>
    <use href="#oak"  x="1220" y="1050" width="70" height="84"/>
    <use href="#pine" x="1340" y="1020" width="60" height="120"/>
    <use href="#pine" x="1460" y="1040" width="55" height="110"/>

    <!-- Sprinkle mushrooms -->
    <use href="#mushroom" x="380"  y="780" width="26" height="26"/>
    <use href="#mushroom" x="520"  y="860" width="22" height="22"/>
    <use href="#mushroom" x="780"  y="930" width="28" height="28"/>
    <use href="#mushroom" x="1100" y="840" width="22" height="22"/>
    <use href="#mushroom" x="1260" y="910" width="26" height="26"/>
  </g>

  <!-- CASTLES -->
  <!-- Ogrodzieniec (north, centre-left) -->
  <g transform="translate(430,120)" filter="url(#softShadow)">
    <use href="#castle" width="220" height="165"/>
    <text x="110" y="190" text-anchor="middle" font-family="Georgia, serif" font-style="italic"
          font-size="26" fill="#3a2a1a">Zamek Ogrodzieniec</text>
  </g>

  <!-- Olsztyn (north-east) -->
  <g transform="translate(1020,90)" filter="url(#softShadow)">
    <use href="#castle" width="200" height="150"/>
    <text x="100" y="175" text-anchor="middle" font-family="Georgia, serif" font-style="italic"
          font-size="24" fill="#3a2a1a">Zamek Olsztyn</text>
  </g>

  <!-- Mirów (centre-left lower ridge) -->
  <g transform="translate(260,520)" filter="url(#softShadow)">
    <use href="#castle" width="180" height="135"/>
    <text x="90" y="158" text-anchor="middle" font-family="Georgia, serif" font-style="italic"
          font-size="22" fill="#3a2a1a">Zamek Mirów</text>
  </g>

  <!-- Bobolice (just east of Mirów, ridge) -->
  <g transform="translate(520,540)" filter="url(#softShadow)">
    <use href="#castle" width="180" height="135"/>
    <text x="90" y="158" text-anchor="middle" font-family="Georgia, serif" font-style="italic"
          font-size="22" fill="#3a2a1a">Zamek Bobolice</text>
  </g>

  <!-- Stone path group from forest edge to each cottage. These are drawn as parchment trails. -->
  <g id="paths" fill="none" stroke="#8d6b3d" stroke-width="10" stroke-linecap="round" stroke-dasharray="14 10" opacity="0.9">
    <!-- Main trail spine -->
    <path d="M80,760 C260,760 340,810 560,830 S900,870 1120,860 1400,840 1540,820"/>
    <!-- Branches: each leads to a cottage marker (coords injected by script) -->
    <!-- Placeholder — JS redraws these per cottage. -->
  </g>
  <g id="branches" fill="none" stroke="#8d6b3d" stroke-width="6" stroke-linecap="round" stroke-dasharray="8 8" opacity="0.95"></g>

  <!-- Cottages target layer (populated by JS) -->
  <g id="cottages"></g>

  <!-- Compass rose, bottom-right -->
  <g transform="translate(1420,980)" filter="url(#softShadow)">
    <use href="#compass" width="140" height="140"/>
  </g>

  <!-- Ornate border -->
  <rect x="12" y="12" width="1576" height="1176" fill="none" stroke="#3a2a1a" stroke-width="6" rx="24" ry="24"/>
  <rect x="28" y="28" width="1544" height="1144" fill="none" stroke="#8d6b3d" stroke-width="2" stroke-dasharray="4 6" rx="18" ry="18"/>

  <!-- Title cartouche -->
  <g transform="translate(560,40)" filter="url(#softShadow)">
    <path d="M0,0 H480 Q520,0 520,40 V80 Q520,120 480,120 H0 Q-40,120 -40,80 V40 Q-40,0 0,0 Z"
          fill="#f1e2b5" stroke="#5a4523" stroke-width="3"/>
    <text x="240" y="62" text-anchor="middle" font-family="Georgia, serif" font-size="36"
          fill="#3a2a1a" font-style="italic" font-weight="bold">Chatynkowo</text>
    <text x="240" y="96" text-anchor="middle" font-family="Georgia, serif" font-size="18"
          fill="#5a4523" font-style="italic">~ baśniowa mapa ukrytych chatynek ~</text>
  </g>
</svg>
