<?xml version="1.0" encoding="UTF-8"?>
<svg xmlns="http://www.w3.org/2000/svg" viewBox="0 0 1600 1200" preserveAspectRatio="xMidYMid meet"
     role="img" aria-labelledby="mapTitle mapDesc">
  <title id="mapTitle">Baśniowa mapa-skarbów Chatynkowa</title>
  <desc id="mapDesc">Pergaminowa mapa w stylu piracko-baśniowym. Na karcie naszkicowano góry, lasy,
  cztery zamki (Ogrodzieniec, Olsztyn, Bobolice, Mirów), różę wiatrów oraz osiemnaście chatynek Elfów
  rozmieszczonych po całym pergaminie.</desc>

  <defs>
    <!-- Aged parchment fill (warm centre → burnt tan at edges) -->
    <radialGradient id="parchmentFill" cx="50%" cy="50%" r="70%">
      <stop offset="0%"   stop-color="#f5dfa8"/>
      <stop offset="55%"  stop-color="#e3bf80"/>
      <stop offset="88%"  stop-color="#b3823a"/>
      <stop offset="100%" stop-color="#8a5a2b"/>
    </radialGradient>

    <!-- Inner edge burnt vignette -->
    <radialGradient id="innerBurn" cx="50%" cy="50%" r="65%">
      <stop offset="60%"  stop-color="#000" stop-opacity="0"/>
      <stop offset="90%"  stop-color="#2a1806" stop-opacity="0.35"/>
      <stop offset="100%" stop-color="#2a1806" stop-opacity="0.75"/>
    </radialGradient>

    <filter id="paperGrain" x="0%" y="0%" width="100%" height="100%">
      <feTurbulence type="fractalNoise" baseFrequency="0.9" numOctaves="2" seed="11"/>
      <feColorMatrix values="0 0 0 0 0.44
                             0 0 0 0 0.30
                             0 0 0 0 0.12
                             0 0 0 0.22 0"/>
      <feComposite in2="SourceGraphic" operator="in"/>
    </filter>

    <filter id="softShadow" x="-10%" y="-10%" width="120%" height="120%">
      <feGaussianBlur in="SourceAlpha" stdDeviation="2"/>
      <feOffset dx="1" dy="2"/>
      <feComponentTransfer><feFuncA type="linear" slope="0.38"/></feComponentTransfer>
      <feMerge><feMergeNode/><feMergeNode in="SourceGraphic"/></feMerge>
    </filter>

    <filter id="mapDrop" x="-5%" y="-5%" width="110%" height="115%">
      <feGaussianBlur in="SourceAlpha" stdDeviation="8"/>
      <feOffset dx="0" dy="14"/>
      <feComponentTransfer><feFuncA type="linear" slope="0.55"/></feComponentTransfer>
      <feMerge><feMergeNode/><feMergeNode in="SourceGraphic"/></feMerge>
    </filter>

    <clipPath id="paperClip"><path d="M28.0,28.0 L58.7,15.4 L76.1,29.3 L107.3,28.3 L170.1,12.5 L208.8,39.8 L251.5,32.6 L312.5,24.3 L304.6,40.9 L349.6,14.2 L435.2,16.5 L462.1,23.4 L458.3,12.1 L537.2,25.4 L569.7,26.3 L620.1,35.2 L657.7,28.9 L708.0,20.4 L704.4,25.1 L730.7,27.6 L811.8,37.5 L865.7,21.3 L882.2,30.9 L936.3,44.0 L968.6,12.2 L1008.5,45.8 L1021.7,23.9 L1034.1,26.6 L1090.5,12.1 L1122.3,18.9 L1207.9,12.9 L1234.0,41.8 L1284.0,20.0 L1302.2,41.8 L1313.5,16.3 L1364.3,27.5 L1401.3,10.1 L1457.2,30.4 L1508.9,28.6 L1552.3,11.9 L1572.0,28.0 L1558.5,84.9 L1575.6,91.4 L1587.8,139.9 L1584.2,164.0 L1590.0,191.2 L1576.9,229.1 L1567.9,305.0 L1577.5,319.0 L1559.4,363.8 L1572.6,399.5 L1577.7,424.6 L1584.2,491.1 L1571.0,537.3 L1589.0,564.4 L1558.9,625.8 L1576.8,620.5 L1570.8,694.3 L1582.0,712.8 L1559.3,780.8 L1563.4,799.8 L1577.2,820.2 L1579.9,840.5 L1555.6,912.8 L1554.4,972.3 L1582.1,969.7 L1582.6,1008.1 L1559.7,1075.5 L1561.2,1094.4 L1557.2,1146.9 L1572.0,1172.0 L1524.4,1172.8 L1470.9,1178.0 L1429.0,1175.7 L1396.6,1163.9 L1393.9,1184.6 L1314.9,1184.7 L1275.1,1166.3 L1269.9,1185.3 L1195.0,1166.6 L1151.8,1174.4 L1132.2,1182.4 L1119.9,1181.3 L1092.4,1174.9 L1007.1,1177.3 L989.4,1157.4 L928.0,1171.9 L915.5,1189.3 L890.8,1189.9 L854.3,1173.0 L796.1,1178.3 L765.9,1161.8 L723.5,1181.1 L666.2,1171.7 L630.7,1157.2 L599.8,1171.8 L555.8,1173.7 L527.2,1156.1 L472.8,1156.1 L442.1,1156.0 L437.6,1185.6 L410.3,1181.3 L318.4,1161.8 L316.3,1164.2 L272.3,1158.2 L240.4,1155.7 L176.5,1154.4 L164.4,1174.5 L118.8,1183.0 L51.8,1189.3 L28.0,1172.0 L10.7,1140.0 L28.4,1098.8 L38.4,1026.0 L19.6,1046.8 L19.7,976.0 L42.8,940.4 L15.4,907.7 L35.2,871.9 L34.8,850.5 L43.8,807.5 L13.0,731.6 L41.1,735.2 L29.9,675.1 L14.7,648.2 L13.9,618.7 L17.3,586.2 L37.3,536.9 L16.4,488.7 L19.0,479.2 L29.8,404.9 L43.6,380.2 L25.6,318.6 L24.2,279.5 L45.4,251.4 L35.4,200.7 L22.5,193.8 L12.5,154.5 L15.9,123.8 L41.3,47.1 L28.0,28.0 Z"/></clipPath>

    
  <!-- Rolling-hills / low mountain range in vintage-map ink style:
       soft rounded bumps with parallel shading hatch-marks on the right flank
       and small foothill tick-marks at the base. Not sharp, not numerous. -->
  <symbol id="mountain" viewBox="0 0 220 80">
    <!-- Main undulating silhouette (4–5 rounded humps) -->
    <path d="M 6,70
             C 16,56 26,34 42,36
             C 54,20 70,18 86,34
             C 98,22 116,22 132,36
             C 146,26 162,30 178,44
             C 190,54 200,64 214,70 Z"
          fill="#e3bf80" fill-opacity="0.35"
          stroke="#4a2d10" stroke-width="2.2" stroke-linejoin="round"/>
    <!-- Behind-contour suggestion of a further range -->
    <path d="M 30,52 C 46,42 58,36 70,42 C 82,36 94,32 108,40
             M 120,44 C 134,36 150,36 164,46 C 176,44 188,50 204,58"
          fill="none" stroke="#4a2d10" stroke-width="1" opacity="0.65"/>
    <!-- Right-flank slope hatching, applied to each bump -->
    <g stroke="#4a2d10" stroke-width="0.9" fill="none" opacity="0.75">
      <line x1="46" y1="40"  x2="38" y2="54"/>
      <line x1="50" y1="44"  x2="42" y2="58"/>
      <line x1="54" y1="50"  x2="46" y2="62"/>
      <line x1="92" y1="36"  x2="82" y2="52"/>
      <line x1="96" y1="42"  x2="86" y2="56"/>
      <line x1="100" y1="48" x2="90" y2="62"/>
      <line x1="138" y1="40" x2="128" y2="54"/>
      <line x1="142" y1="46" x2="132" y2="60"/>
      <line x1="184" y1="50" x2="174" y2="62"/>
      <line x1="188" y1="56" x2="178" y2="66"/>
    </g>
    <!-- Small foothill / rock tick-marks along the base -->
    <g stroke="#4a2d10" stroke-width="1" fill="none" stroke-linecap="round">
      <path d="M 22,67 l 3,-4 l 3,4"/>
      <path d="M 60,65 l 2.5,-3 l 2.5,3"/>
      <path d="M 104,63 l 2.5,-3 l 2.5,3"/>
      <path d="M 150,65 l 2.5,-3 l 2.5,3"/>
      <path d="M 190,68 l 2.5,-3 l 2.5,3"/>
    </g>
  </symbol>

  <!-- Single pine / fir tree (small ink silhouette) -->
  <symbol id="pine" viewBox="0 0 30 44">
    <polygon points="15,3 4,18 11,18 3,30 12,30 2,42 28,42 18,30 27,30 19,18 26,18"
             fill="#6b4218" stroke="#2a1806" stroke-width="1"/>
    <rect x="13.5" y="42" width="3" height="2" fill="#2a1806"/>
  </symbol>

  <!-- Fatter pine (variety) -->
  <symbol id="pine2" viewBox="0 0 30 40">
    <polygon points="15,2 3,26 12,26 5,38 25,38 18,26 27,26"
             fill="#8a5a2b" stroke="#2a1806" stroke-width="1"/>
    <rect x="13.5" y="38" width="3" height="2" fill="#2a1806"/>
  </symbol>

  <!-- Medieval stone castle, drawn as an ink contour:
         * tall cylindrical (round) keep with battlements,
         * attached lower stone wall,
         * conical roof on a smaller flanking turret,
         * Polish flag on a pole flying from the keep's top (white top, red bottom),
         * the stonework is suggested by a brick-pattern hatch. -->
  <symbol id="castle" viewBox="0 0 160 170">
    <!-- Rocky outcrop base (soft contour) -->
    <path d="M 4,160 Q 40,148 80,154 T 156,156 L 156,168 L 4,168 Z"
          fill="none" stroke="#4a2d10" stroke-width="1.6"/>
    <g stroke="#4a2d10" stroke-width="0.7" fill="none" opacity="0.7">
      <path d="M 12,162 l 3,-4 l 3,4"/>
      <path d="M 60,158 l 3,-4 l 3,4"/>
      <path d="M 100,158 l 3,-4 l 3,4"/>
      <path d="M 140,160 l 3,-4 l 3,4"/>
    </g>

    <!-- Attached curtain wall (right side, lower) -->
    <rect x="88" y="104" width="62" height="52" fill="#f5dfa8"
          stroke="#4a2d10" stroke-width="2"/>
    <!-- Wall crenellations -->
    <path d="M 88,104 V 96 H 94 V 104 M 100,104 V 96 H 106 V 104
             M 112,104 V 96 H 118 V 104 M 124,104 V 96 H 130 V 104
             M 136,104 V 96 H 142 V 104 M 148,104 V 96 H 150 V 104"
          fill="none" stroke="#4a2d10" stroke-width="1.8"/>
    <!-- Small corner turret on the far right -->
    <rect x="140" y="78" width="14" height="26" fill="#f5dfa8"
          stroke="#4a2d10" stroke-width="1.8"/>
    <polygon points="138,78 147,64 156,78" fill="#e3bf80"
             stroke="#4a2d10" stroke-width="1.6"/>
    <!-- Wall gate -->
    <path d="M 110,156 V 132 Q 110,120 118,120 Q 126,120 126,132 V 156 Z"
          fill="#4a2d10"/>
    <!-- Wall slit windows -->
    <rect x="96" y="120" width="3" height="10" fill="#4a2d10"/>
    <rect x="136" y="120" width="3" height="10" fill="#4a2d10"/>

    <!-- Main round keep: cylindrical body shown side-on -->
    <!-- body (tall rectangle; "roundness" hinted by vertical shading arcs) -->
    <rect x="30" y="52" width="52" height="104" fill="#f5dfa8"
          stroke="#4a2d10" stroke-width="2.2"/>
    <!-- Left & right curvature shading arcs (to read as cylinder) -->
    <path d="M 30,56 Q 36,100 30,154" fill="none"
          stroke="#4a2d10" stroke-width="1" opacity="0.55"/>
    <path d="M 82,56 Q 76,100 82,154" fill="none"
          stroke="#4a2d10" stroke-width="1" opacity="0.55"/>
    <!-- Keep crenellations -->
    <path d="M 30,52 V 42 H 36 V 52 M 42,52 V 42 H 48 V 52
             M 54,52 V 42 H 60 V 52 M 66,52 V 42 H 72 V 52
             M 78,52 V 42 H 82 V 52"
          fill="none" stroke="#4a2d10" stroke-width="2"/>
    <!-- Arched keep door -->
    <path d="M 48,156 V 130 Q 48,118 56,118 Q 64,118 64,130 V 156 Z"
          fill="#4a2d10"/>
    <!-- Arched window on the keep -->
    <path d="M 52,92 V 76 Q 52,70 56,70 Q 60,70 60,76 V 92 Z"
          fill="#4a2d10"/>
    <!-- Slit windows -->
    <rect x="38" y="100" width="3" height="10" fill="#4a2d10"/>
    <rect x="71" y="100" width="3" height="10" fill="#4a2d10"/>

    <!-- Flag pole + Polish flag (white top, red bottom) -->
    <line x1="56" y1="42" x2="56" y2="14" stroke="#2a1806" stroke-width="2"/>
    <rect x="56" y="14" width="26" height="7"
          fill="#ffffff" stroke="#4a2d10" stroke-width="0.9"/>
    <rect x="56" y="21" width="26" height="7"
          fill="#d4202a" stroke="#4a2d10" stroke-width="0.9"/>

    <!-- Stone-masonry pattern on keep (brick courses, offset per row) -->
    <g stroke="#4a2d10" stroke-width="0.6" opacity="0.55" fill="none">
      <!-- horizontal courses -->
      <line x1="30" y1="64"  x2="82" y2="64"/>
      <line x1="30" y1="76"  x2="82" y2="76"/>
      <line x1="30" y1="88"  x2="82" y2="88"/>
      <line x1="30" y1="100" x2="82" y2="100"/>
      <line x1="30" y1="112" x2="82" y2="112"/>
      <line x1="30" y1="124" x2="82" y2="124"/>
      <line x1="30" y1="136" x2="82" y2="136"/>
      <line x1="30" y1="148" x2="82" y2="148"/>
      <!-- row 1 verticals -->
      <line x1="43" y1="52" x2="43" y2="64"/>
      <line x1="56" y1="52" x2="56" y2="64"/>
      <line x1="69" y1="52" x2="69" y2="64"/>
      <!-- row 2 (offset) -->
      <line x1="36" y1="64" x2="36" y2="76"/>
      <line x1="49" y1="64" x2="49" y2="76"/>
      <line x1="62" y1="64" x2="62" y2="76"/>
      <line x1="75" y1="64" x2="75" y2="76"/>
      <!-- row 3 -->
      <line x1="43" y1="76" x2="43" y2="88"/>
      <line x1="56" y1="76" x2="56" y2="88"/>
      <line x1="69" y1="76" x2="69" y2="88"/>
      <!-- row 4 -->
      <line x1="36" y1="88" x2="36" y2="100"/>
      <line x1="49" y1="88" x2="49" y2="100"/>
      <line x1="62" y1="88" x2="62" y2="100"/>
      <line x1="75" y1="88" x2="75" y2="100"/>
      <!-- row 5 -->
      <line x1="43" y1="100" x2="43" y2="112"/>
      <line x1="69" y1="100" x2="69" y2="112"/>
      <!-- row 6 -->
      <line x1="36" y1="112" x2="36" y2="124"/>
      <line x1="49" y1="112" x2="49" y2="124"/>
      <line x1="62" y1="112" x2="62" y2="124"/>
      <line x1="75" y1="112" x2="75" y2="124"/>
      <!-- row 7 (around door) -->
      <line x1="43" y1="124" x2="43" y2="136"/>
      <line x1="69" y1="124" x2="69" y2="136"/>
      <!-- row 8 -->
      <line x1="36" y1="136" x2="36" y2="148"/>
      <line x1="75" y1="136" x2="75" y2="148"/>
    </g>

    <!-- Stone-masonry pattern on curtain wall -->
    <g stroke="#4a2d10" stroke-width="0.5" opacity="0.5" fill="none">
      <line x1="88" y1="116" x2="150" y2="116"/>
      <line x1="88" y1="128" x2="150" y2="128"/>
      <line x1="88" y1="140" x2="150" y2="140"/>
      <line x1="88" y1="152" x2="150" y2="152"/>
      <line x1="98" y1="104" x2="98" y2="116"/>
      <line x1="114" y1="104" x2="114" y2="116"/>
      <line x1="134" y1="104" x2="134" y2="116"/>
      <line x1="94" y1="116" x2="94" y2="128"/>
      <line x1="106" y1="116" x2="106" y2="128"/>
      <line x1="140" y1="116" x2="140" y2="128"/>
      <line x1="100" y1="128" x2="100" y2="140"/>
      <line x1="132" y1="128" x2="132" y2="140"/>
      <line x1="144" y1="128" x2="144" y2="140"/>
      <line x1="94" y1="140" x2="94" y2="152"/>
      <line x1="106" y1="140" x2="106" y2="152"/>
      <line x1="140" y1="140" x2="140" y2="152"/>
    </g>
  </symbol>

  <!-- Cozy cottage (house + red roof + chimney with curling smoke) -->
  <symbol id="cottageHouse" viewBox="0 0 48 52">
    <!-- Smoke curl -->
    <path d="M 34,10 q -4,-6 2,-10 q 6,-3 0,-10"
          fill="none" stroke="#4a2d10" stroke-width="1.2" stroke-linecap="round" opacity="0.55"/>
    <!-- Chimney -->
    <rect x="32" y="10" width="6" height="12" fill="#4a2d10"/>
    <!-- Roof -->
    <polygon points="6,24 24,6 42,24" fill="#a83a2a" stroke="#2a1806" stroke-width="1.5"/>
    <!-- Walls -->
    <rect x="10" y="24" width="28" height="22" fill="#f5dfa8" stroke="#2a1806" stroke-width="1.5"/>
    <!-- Window -->
    <rect x="14" y="28" width="8" height="8" fill="#4a2d10" stroke="#4a2d10" stroke-width="0.6"/>
    <line x1="18" y1="28" x2="18" y2="36" stroke="#f5dfa8" stroke-width="0.8"/>
    <line x1="14" y1="32" x2="22" y2="32" stroke="#f5dfa8" stroke-width="0.8"/>
    <!-- Door -->
    <path d="M 28,46 V 32 Q 28,28 32,28 Q 36,28 36,32 V 46 Z" fill="#4a2d10"/>
  </symbol>

  <!-- Ornate compass rose -->
  <symbol id="compass" viewBox="0 0 200 200">
    <circle cx="100" cy="100" r="92" fill="none" stroke="#4a2d10" stroke-width="2"/>
    <circle cx="100" cy="100" r="80" fill="none" stroke="#4a2d10" stroke-width="0.8" stroke-dasharray="3 3"/>
    <circle cx="100" cy="100" r="60" fill="none" stroke="#4a2d10" stroke-width="0.8"/>
    <circle cx="100" cy="100" r="8" fill="#4a2d10"/>
    <!-- Tick marks around the outer ring, every 10 degrees -->
    <line x1="100.0" y1="14.0" x2="100.0" y2="8.0" stroke="#4a2d10" stroke-width="1.4"/>
      <line x1="114.9" y1="15.3" x2="116.0" y2="9.4" stroke="#4a2d10" stroke-width="0.8"/>
      <line x1="129.4" y1="19.2" x2="131.5" y2="13.5" stroke="#4a2d10" stroke-width="0.8"/>
      <line x1="143.0" y1="25.5" x2="146.0" y2="20.3" stroke="#4a2d10" stroke-width="0.8"/>
      <line x1="155.3" y1="34.1" x2="159.1" y2="29.5" stroke="#4a2d10" stroke-width="0.8"/>
      <line x1="165.9" y1="44.7" x2="170.5" y2="40.9" stroke="#4a2d10" stroke-width="0.8"/>
      <line x1="174.5" y1="57.0" x2="179.7" y2="54.0" stroke="#4a2d10" stroke-width="0.8"/>
      <line x1="180.8" y1="70.6" x2="186.5" y2="68.5" stroke="#4a2d10" stroke-width="0.8"/>
      <line x1="184.7" y1="85.1" x2="190.6" y2="84.0" stroke="#4a2d10" stroke-width="0.8"/>
      <line x1="186.0" y1="100.0" x2="192.0" y2="100.0" stroke="#4a2d10" stroke-width="1.4"/>
      <line x1="184.7" y1="114.9" x2="190.6" y2="116.0" stroke="#4a2d10" stroke-width="0.8"/>
      <line x1="180.8" y1="129.4" x2="186.5" y2="131.5" stroke="#4a2d10" stroke-width="0.8"/>
      <line x1="174.5" y1="143.0" x2="179.7" y2="146.0" stroke="#4a2d10" stroke-width="0.8"/>
      <line x1="165.9" y1="155.3" x2="170.5" y2="159.1" stroke="#4a2d10" stroke-width="0.8"/>
      <line x1="155.3" y1="165.9" x2="159.1" y2="170.5" stroke="#4a2d10" stroke-width="0.8"/>
      <line x1="143.0" y1="174.5" x2="146.0" y2="179.7" stroke="#4a2d10" stroke-width="0.8"/>
      <line x1="129.4" y1="180.8" x2="131.5" y2="186.5" stroke="#4a2d10" stroke-width="0.8"/>
      <line x1="114.9" y1="184.7" x2="116.0" y2="190.6" stroke="#4a2d10" stroke-width="0.8"/>
      <line x1="100.0" y1="186.0" x2="100.0" y2="192.0" stroke="#4a2d10" stroke-width="1.4"/>
      <line x1="85.1" y1="184.7" x2="84.0" y2="190.6" stroke="#4a2d10" stroke-width="0.8"/>
      <line x1="70.6" y1="180.8" x2="68.5" y2="186.5" stroke="#4a2d10" stroke-width="0.8"/>
      <line x1="57.0" y1="174.5" x2="54.0" y2="179.7" stroke="#4a2d10" stroke-width="0.8"/>
      <line x1="44.7" y1="165.9" x2="40.9" y2="170.5" stroke="#4a2d10" stroke-width="0.8"/>
      <line x1="34.1" y1="155.3" x2="29.5" y2="159.1" stroke="#4a2d10" stroke-width="0.8"/>
      <line x1="25.5" y1="143.0" x2="20.3" y2="146.0" stroke="#4a2d10" stroke-width="0.8"/>
      <line x1="19.2" y1="129.4" x2="13.5" y2="131.5" stroke="#4a2d10" stroke-width="0.8"/>
      <line x1="15.3" y1="114.9" x2="9.4" y2="116.0" stroke="#4a2d10" stroke-width="0.8"/>
      <line x1="14.0" y1="100.0" x2="8.0" y2="100.0" stroke="#4a2d10" stroke-width="1.4"/>
      <line x1="15.3" y1="85.1" x2="9.4" y2="84.0" stroke="#4a2d10" stroke-width="0.8"/>
      <line x1="19.2" y1="70.6" x2="13.5" y2="68.5" stroke="#4a2d10" stroke-width="0.8"/>
      <line x1="25.5" y1="57.0" x2="20.3" y2="54.0" stroke="#4a2d10" stroke-width="0.8"/>
      <line x1="34.1" y1="44.7" x2="29.5" y2="40.9" stroke="#4a2d10" stroke-width="0.8"/>
      <line x1="44.7" y1="34.1" x2="40.9" y2="29.5" stroke="#4a2d10" stroke-width="0.8"/>
      <line x1="57.0" y1="25.5" x2="54.0" y2="20.3" stroke="#4a2d10" stroke-width="0.8"/>
      <line x1="70.6" y1="19.2" x2="68.5" y2="13.5" stroke="#4a2d10" stroke-width="0.8"/>
      <line x1="85.1" y1="15.3" x2="84.0" y2="9.4" stroke="#4a2d10" stroke-width="0.8"/>
    <!-- 8-point star -->
    <polygon points="100,8 108,92 100,88 92,92" fill="#f5dfa8" stroke="#4a2d10" stroke-width="1.4"/>
    <polygon points="100,192 92,108 100,112 108,108" fill="#b3823a" stroke="#4a2d10" stroke-width="1.4"/>
    <polygon points="8,100 92,92 88,100 92,108" fill="#f5dfa8" stroke="#4a2d10" stroke-width="1.4"/>
    <polygon points="192,100 108,108 112,100 108,92" fill="#b3823a" stroke="#4a2d10" stroke-width="1.4"/>
    <!-- Diagonal points -->
    <polygon points="34,34 96,96 88,92 92,88" fill="#b3823a" stroke="#4a2d10" stroke-width="1"/>
    <polygon points="166,34 104,96 108,88 112,92" fill="#f5dfa8" stroke="#4a2d10" stroke-width="1"/>
    <polygon points="34,166 96,104 92,108 88,112" fill="#f5dfa8" stroke="#4a2d10" stroke-width="1"/>
    <polygon points="166,166 104,104 112,108 108,112" fill="#b3823a" stroke="#4a2d10" stroke-width="1"/>
    <!-- Cardinal text -->
    <text x="100" y="30"  text-anchor="middle" font-family="Georgia, serif" font-weight="bold"
          font-size="18" fill="#2a1806">N</text>
    <text x="100" y="178" text-anchor="middle" font-family="Georgia, serif" font-weight="bold"
          font-size="18" fill="#2a1806">S</text>
    <text x="24"  y="106" text-anchor="middle" font-family="Georgia, serif" font-weight="bold"
          font-size="18" fill="#2a1806">W</text>
    <text x="176" y="106" text-anchor="middle" font-family="Georgia, serif" font-weight="bold"
          font-size="18" fill="#2a1806">E</text>
    <!-- Decorative ring with a fleur-de-lis on N -->
    <path d="M 100,10 Q 96,0 100,-6 Q 104,0 100,10 Z"
          transform="translate(0,12)" fill="#2a1806"/>
  </symbol>

  <!-- Sea-monster / fish flourish (decorative, for empty corners) -->
  <symbol id="seaMonster" viewBox="0 0 140 60">
    <path d="M 10,38 Q 30,10 65,22 Q 95,32 120,18 L 130,28 Q 110,40 85,36
             Q 55,32 30,48 Q 20,50 10,38 Z"
          fill="#b3823a" stroke="#4a2d10" stroke-width="1.5"/>
    <circle cx="112" cy="24" r="2.5" fill="#2a1806"/>
    <path d="M 22,38 L 10,48 L 18,40 L 10,30 Z" fill="#b3823a" stroke="#4a2d10" stroke-width="1.2"/>
    <path d="M 70,30 q 2,-6 6,-4 M 82,26 q 3,-5 7,-2 M 58,32 q 2,-4 6,-2"
          stroke="#4a2d10" stroke-width="0.8" fill="none"/>
  </symbol>

  </defs>

  <!-- ============== Parchment frame ============== -->
  <path d="M28.0,28.0 L58.7,15.4 L76.1,29.3 L107.3,28.3 L170.1,12.5 L208.8,39.8 L251.5,32.6 L312.5,24.3 L304.6,40.9 L349.6,14.2 L435.2,16.5 L462.1,23.4 L458.3,12.1 L537.2,25.4 L569.7,26.3 L620.1,35.2 L657.7,28.9 L708.0,20.4 L704.4,25.1 L730.7,27.6 L811.8,37.5 L865.7,21.3 L882.2,30.9 L936.3,44.0 L968.6,12.2 L1008.5,45.8 L1021.7,23.9 L1034.1,26.6 L1090.5,12.1 L1122.3,18.9 L1207.9,12.9 L1234.0,41.8 L1284.0,20.0 L1302.2,41.8 L1313.5,16.3 L1364.3,27.5 L1401.3,10.1 L1457.2,30.4 L1508.9,28.6 L1552.3,11.9 L1572.0,28.0 L1558.5,84.9 L1575.6,91.4 L1587.8,139.9 L1584.2,164.0 L1590.0,191.2 L1576.9,229.1 L1567.9,305.0 L1577.5,319.0 L1559.4,363.8 L1572.6,399.5 L1577.7,424.6 L1584.2,491.1 L1571.0,537.3 L1589.0,564.4 L1558.9,625.8 L1576.8,620.5 L1570.8,694.3 L1582.0,712.8 L1559.3,780.8 L1563.4,799.8 L1577.2,820.2 L1579.9,840.5 L1555.6,912.8 L1554.4,972.3 L1582.1,969.7 L1582.6,1008.1 L1559.7,1075.5 L1561.2,1094.4 L1557.2,1146.9 L1572.0,1172.0 L1524.4,1172.8 L1470.9,1178.0 L1429.0,1175.7 L1396.6,1163.9 L1393.9,1184.6 L1314.9,1184.7 L1275.1,1166.3 L1269.9,1185.3 L1195.0,1166.6 L1151.8,1174.4 L1132.2,1182.4 L1119.9,1181.3 L1092.4,1174.9 L1007.1,1177.3 L989.4,1157.4 L928.0,1171.9 L915.5,1189.3 L890.8,1189.9 L854.3,1173.0 L796.1,1178.3 L765.9,1161.8 L723.5,1181.1 L666.2,1171.7 L630.7,1157.2 L599.8,1171.8 L555.8,1173.7 L527.2,1156.1 L472.8,1156.1 L442.1,1156.0 L437.6,1185.6 L410.3,1181.3 L318.4,1161.8 L316.3,1164.2 L272.3,1158.2 L240.4,1155.7 L176.5,1154.4 L164.4,1174.5 L118.8,1183.0 L51.8,1189.3 L28.0,1172.0 L10.7,1140.0 L28.4,1098.8 L38.4,1026.0 L19.6,1046.8 L19.7,976.0 L42.8,940.4 L15.4,907.7 L35.2,871.9 L34.8,850.5 L43.8,807.5 L13.0,731.6 L41.1,735.2 L29.9,675.1 L14.7,648.2 L13.9,618.7 L17.3,586.2 L37.3,536.9 L16.4,488.7 L19.0,479.2 L29.8,404.9 L43.6,380.2 L25.6,318.6 L24.2,279.5 L45.4,251.4 L35.4,200.7 L22.5,193.8 L12.5,154.5 L15.9,123.8 L41.3,47.1 L28.0,28.0 Z" fill="#2a1806" opacity="0.35"
        transform="translate(6 10)" pointer-events="none"/>
  <path d="M28.0,28.0 L58.7,15.4 L76.1,29.3 L107.3,28.3 L170.1,12.5 L208.8,39.8 L251.5,32.6 L312.5,24.3 L304.6,40.9 L349.6,14.2 L435.2,16.5 L462.1,23.4 L458.3,12.1 L537.2,25.4 L569.7,26.3 L620.1,35.2 L657.7,28.9 L708.0,20.4 L704.4,25.1 L730.7,27.6 L811.8,37.5 L865.7,21.3 L882.2,30.9 L936.3,44.0 L968.6,12.2 L1008.5,45.8 L1021.7,23.9 L1034.1,26.6 L1090.5,12.1 L1122.3,18.9 L1207.9,12.9 L1234.0,41.8 L1284.0,20.0 L1302.2,41.8 L1313.5,16.3 L1364.3,27.5 L1401.3,10.1 L1457.2,30.4 L1508.9,28.6 L1552.3,11.9 L1572.0,28.0 L1558.5,84.9 L1575.6,91.4 L1587.8,139.9 L1584.2,164.0 L1590.0,191.2 L1576.9,229.1 L1567.9,305.0 L1577.5,319.0 L1559.4,363.8 L1572.6,399.5 L1577.7,424.6 L1584.2,491.1 L1571.0,537.3 L1589.0,564.4 L1558.9,625.8 L1576.8,620.5 L1570.8,694.3 L1582.0,712.8 L1559.3,780.8 L1563.4,799.8 L1577.2,820.2 L1579.9,840.5 L1555.6,912.8 L1554.4,972.3 L1582.1,969.7 L1582.6,1008.1 L1559.7,1075.5 L1561.2,1094.4 L1557.2,1146.9 L1572.0,1172.0 L1524.4,1172.8 L1470.9,1178.0 L1429.0,1175.7 L1396.6,1163.9 L1393.9,1184.6 L1314.9,1184.7 L1275.1,1166.3 L1269.9,1185.3 L1195.0,1166.6 L1151.8,1174.4 L1132.2,1182.4 L1119.9,1181.3 L1092.4,1174.9 L1007.1,1177.3 L989.4,1157.4 L928.0,1171.9 L915.5,1189.3 L890.8,1189.9 L854.3,1173.0 L796.1,1178.3 L765.9,1161.8 L723.5,1181.1 L666.2,1171.7 L630.7,1157.2 L599.8,1171.8 L555.8,1173.7 L527.2,1156.1 L472.8,1156.1 L442.1,1156.0 L437.6,1185.6 L410.3,1181.3 L318.4,1161.8 L316.3,1164.2 L272.3,1158.2 L240.4,1155.7 L176.5,1154.4 L164.4,1174.5 L118.8,1183.0 L51.8,1189.3 L28.0,1172.0 L10.7,1140.0 L28.4,1098.8 L38.4,1026.0 L19.6,1046.8 L19.7,976.0 L42.8,940.4 L15.4,907.7 L35.2,871.9 L34.8,850.5 L43.8,807.5 L13.0,731.6 L41.1,735.2 L29.9,675.1 L14.7,648.2 L13.9,618.7 L17.3,586.2 L37.3,536.9 L16.4,488.7 L19.0,479.2 L29.8,404.9 L43.6,380.2 L25.6,318.6 L24.2,279.5 L45.4,251.4 L35.4,200.7 L22.5,193.8 L12.5,154.5 L15.9,123.8 L41.3,47.1 L28.0,28.0 Z" fill="url(#parchmentFill)" filter="url(#mapDrop)"/>
  <path d="M28.0,28.0 L58.7,15.4 L76.1,29.3 L107.3,28.3 L170.1,12.5 L208.8,39.8 L251.5,32.6 L312.5,24.3 L304.6,40.9 L349.6,14.2 L435.2,16.5 L462.1,23.4 L458.3,12.1 L537.2,25.4 L569.7,26.3 L620.1,35.2 L657.7,28.9 L708.0,20.4 L704.4,25.1 L730.7,27.6 L811.8,37.5 L865.7,21.3 L882.2,30.9 L936.3,44.0 L968.6,12.2 L1008.5,45.8 L1021.7,23.9 L1034.1,26.6 L1090.5,12.1 L1122.3,18.9 L1207.9,12.9 L1234.0,41.8 L1284.0,20.0 L1302.2,41.8 L1313.5,16.3 L1364.3,27.5 L1401.3,10.1 L1457.2,30.4 L1508.9,28.6 L1552.3,11.9 L1572.0,28.0 L1558.5,84.9 L1575.6,91.4 L1587.8,139.9 L1584.2,164.0 L1590.0,191.2 L1576.9,229.1 L1567.9,305.0 L1577.5,319.0 L1559.4,363.8 L1572.6,399.5 L1577.7,424.6 L1584.2,491.1 L1571.0,537.3 L1589.0,564.4 L1558.9,625.8 L1576.8,620.5 L1570.8,694.3 L1582.0,712.8 L1559.3,780.8 L1563.4,799.8 L1577.2,820.2 L1579.9,840.5 L1555.6,912.8 L1554.4,972.3 L1582.1,969.7 L1582.6,1008.1 L1559.7,1075.5 L1561.2,1094.4 L1557.2,1146.9 L1572.0,1172.0 L1524.4,1172.8 L1470.9,1178.0 L1429.0,1175.7 L1396.6,1163.9 L1393.9,1184.6 L1314.9,1184.7 L1275.1,1166.3 L1269.9,1185.3 L1195.0,1166.6 L1151.8,1174.4 L1132.2,1182.4 L1119.9,1181.3 L1092.4,1174.9 L1007.1,1177.3 L989.4,1157.4 L928.0,1171.9 L915.5,1189.3 L890.8,1189.9 L854.3,1173.0 L796.1,1178.3 L765.9,1161.8 L723.5,1181.1 L666.2,1171.7 L630.7,1157.2 L599.8,1171.8 L555.8,1173.7 L527.2,1156.1 L472.8,1156.1 L442.1,1156.0 L437.6,1185.6 L410.3,1181.3 L318.4,1161.8 L316.3,1164.2 L272.3,1158.2 L240.4,1155.7 L176.5,1154.4 L164.4,1174.5 L118.8,1183.0 L51.8,1189.3 L28.0,1172.0 L10.7,1140.0 L28.4,1098.8 L38.4,1026.0 L19.6,1046.8 L19.7,976.0 L42.8,940.4 L15.4,907.7 L35.2,871.9 L34.8,850.5 L43.8,807.5 L13.0,731.6 L41.1,735.2 L29.9,675.1 L14.7,648.2 L13.9,618.7 L17.3,586.2 L37.3,536.9 L16.4,488.7 L19.0,479.2 L29.8,404.9 L43.6,380.2 L25.6,318.6 L24.2,279.5 L45.4,251.4 L35.4,200.7 L22.5,193.8 L12.5,154.5 L15.9,123.8 L41.3,47.1 L28.0,28.0 Z" fill="#b3823a" opacity="0.28" filter="url(#paperGrain)" pointer-events="none"/>

  <!-- Stains on the paper -->
  <g clip-path="url(#paperClip)" pointer-events="none">
    <ellipse cx="517" cy="358" rx="32" ry="21" transform="rotate(28 517 358)" fill="#4a2d10" opacity="0.15"/>
    <ellipse cx="492" cy="1034" rx="64" ry="23" transform="rotate(44 492 1034)" fill="#4a2d10" opacity="0.22"/>
    <ellipse cx="552" cy="465" rx="18" ry="19" transform="rotate(85 552 465)" fill="#4a2d10" opacity="0.16"/>
    <ellipse cx="411" cy="604" rx="18" ry="16" transform="rotate(16 411 604)" fill="#4a2d10" opacity="0.15"/>
    <ellipse cx="204" cy="151" rx="32" ry="16" transform="rotate(105 204 151)" fill="#4a2d10" opacity="0.16"/>
    <ellipse cx="1126" cy="748" rx="52" ry="31" transform="rotate(70 1126 748)" fill="#4a2d10" opacity="0.14"/>
    <ellipse cx="1430" cy="270" rx="52" ry="25" transform="rotate(8 1430 270)" fill="#4a2d10" opacity="0.20"/>
    <ellipse cx="1310" cy="720" rx="52" ry="29" transform="rotate(25 1310 720)" fill="#4a2d10" opacity="0.16"/>
    <ellipse cx="806" cy="915" rx="56" ry="30" transform="rotate(105 806 915)" fill="#4a2d10" opacity="0.21"/>
    <ellipse cx="1038" cy="782" rx="29" ry="11" transform="rotate(24 1038 782)" fill="#4a2d10" opacity="0.14"/>
    <ellipse cx="286" cy="916" rx="44" ry="25" transform="rotate(113 286 916)" fill="#4a2d10" opacity="0.18"/>
    <ellipse cx="786" cy="133" rx="55" ry="28" transform="rotate(91 786 133)" fill="#4a2d10" opacity="0.16"/>
    <ellipse cx="1007" cy="192" rx="53" ry="16" transform="rotate(13 1007 192)" fill="#4a2d10" opacity="0.13"/>
    <ellipse cx="1098" cy="323" rx="53" ry="33" transform="rotate(89 1098 323)" fill="#4a2d10" opacity="0.15"/>
    <ellipse cx="773" cy="773" rx="54" ry="25" transform="rotate(116 773 773)" fill="#4a2d10" opacity="0.11"/>
    <ellipse cx="342" cy="369" rx="53" ry="17" transform="rotate(102 342 369)" fill="#4a2d10" opacity="0.10"/>
    <ellipse cx="229" cy="383" rx="50" ry="27" transform="rotate(122 229 383)" fill="#4a2d10" opacity="0.13"/>
    <ellipse cx="821" cy="567" rx="40" ry="13" transform="rotate(161 821 567)" fill="#4a2d10" opacity="0.12"/>
    <ellipse cx="1422" cy="1010" rx="19" ry="21" transform="rotate(148 1422 1010)" fill="#4a2d10" opacity="0.22"/>
    <ellipse cx="734" cy="383" rx="28" ry="33" transform="rotate(38 734 383)" fill="#4a2d10" opacity="0.17"/>
  </g>

  <!-- Double-ruled inner border -->
  <rect x="92" y="92" width="1416" height="1016"
        fill="none" stroke="#4a2d10" stroke-width="3"/>
  <rect x="106" y="106" width="1388" height="988"
        fill="none" stroke="#4a2d10" stroke-width="0.8" stroke-dasharray="4 3"/>

  <!-- Corner flourishes -->
  
    <g stroke="#4a2d10" stroke-width="1.3" fill="none" opacity="0.85">
      <path d="M 108,108 q 20,6 36,22 q 6,10 6,22"/>
      <path d="M 108,108 q 6,20 22,36 q 10,6 22,6"/>
      <circle cx="136" cy="136" r="2.5" fill="#4a2d10"/>
    </g>
  
    <g stroke="#4a2d10" stroke-width="1.3" fill="none" opacity="0.85">
      <path d="M 1492,108 q -20,6 -36,22 q -6,10 -6,22"/>
      <path d="M 1492,108 q -6,20 -22,36 q -10,6 -22,6"/>
      <circle cx="1464" cy="136" r="2.5" fill="#4a2d10"/>
    </g>
  
    <g stroke="#4a2d10" stroke-width="1.3" fill="none" opacity="0.85">
      <path d="M 108,1092 q 20,-6 36,-22 q 6,-10 6,-22"/>
      <path d="M 108,1092 q 6,-20 22,-36 q 10,-6 22,-6"/>
      <circle cx="136" cy="1064" r="2.5" fill="#4a2d10"/>
    </g>
  
    <g stroke="#4a2d10" stroke-width="1.3" fill="none" opacity="0.85">
      <path d="M 1492,1092 q -20,-6 -36,-22 q -6,-10 -6,-22"/>
      <path d="M 1492,1092 q -6,-20 -22,-36 q -10,-6 -22,-6"/>
      <circle cx="1464" cy="1064" r="2.5" fill="#4a2d10"/>
    </g>

  <!-- ============== Map content ============== -->
  <!-- Mountains (rear) -->
  <g id="mountains">
    <use href="#mountain" x="510" y="394" width="420" height="153"/>
    <use href="#mountain" x="930" y="548" width="340" height="124"/>
    <use href="#mountain" x="250" y="645" width="300" height="109"/>
    <use href="#mountain" x="680" y="755" width="360" height="131"/>
  </g>

  <!-- Pine/fir forest clusters (in front of mountains) -->
  <g id="forest" opacity="0.92">
    <use href="#pine" x="362" y="315" width="34" height="49"/>
    <use href="#pine2" x="406" y="337" width="34" height="49"/>
    <use href="#pine" x="415" y="365" width="26" height="37"/>
    <use href="#pine" x="434" y="330" width="30" height="43"/>
    <use href="#pine" x="485" y="318" width="26" height="37"/>
    <use href="#pine2" x="682" y="354" width="34" height="49"/>
    <use href="#pine2" x="624" y="362" width="30" height="43"/>
    <use href="#pine2" x="673" y="362" width="34" height="49"/>
    <use href="#pine2" x="594" y="316" width="34" height="49"/>
    <use href="#pine2" x="673" y="345" width="26" height="37"/>
    <use href="#pine2" x="680" y="342" width="26" height="37"/>
    <use href="#pine2" x="1170" y="473" width="26" height="37"/>
    <use href="#pine2" x="1168" y="487" width="30" height="43"/>
    <use href="#pine2" x="1218" y="478" width="34" height="49"/>
    <use href="#pine" x="1205" y="458" width="34" height="49"/>
    <use href="#pine" x="1203" y="466" width="30" height="43"/>
    <use href="#pine2" x="1197" y="446" width="34" height="49"/>
    <use href="#pine" x="281" y="546" width="34" height="49"/>
    <use href="#pine2" x="334" y="533" width="26" height="37"/>
    <use href="#pine2" x="377" y="514" width="34" height="49"/>
    <use href="#pine" x="251" y="550" width="30" height="43"/>
    <use href="#pine" x="302" y="510" width="34" height="49"/>
    <use href="#pine" x="434" y="781" width="34" height="49"/>
    <use href="#pine2" x="456" y="764" width="34" height="49"/>
    <use href="#pine" x="438" y="808" width="26" height="37"/>
    <use href="#pine2" x="421" y="789" width="34" height="49"/>
    <use href="#pine2" x="515" y="804" width="30" height="43"/>
    <use href="#pine2" x="444" y="777" width="30" height="43"/>
    <use href="#pine2" x="986" y="674" width="26" height="37"/>
    <use href="#pine" x="934" y="656" width="34" height="49"/>
    <use href="#pine" x="947" y="692" width="30" height="43"/>
    <use href="#pine2" x="947" y="709" width="26" height="37"/>
    <use href="#pine" x="976" y="705" width="30" height="43"/>
    <use href="#pine" x="1207" y="745" width="26" height="37"/>
    <use href="#pine2" x="1184" y="756" width="26" height="37"/>
    <use href="#pine" x="1172" y="782" width="34" height="49"/>
    <use href="#pine2" x="1245" y="761" width="26" height="37"/>
    <use href="#pine" x="1209" y="768" width="30" height="43"/>
    <use href="#pine" x="666" y="925" width="26" height="37"/>
    <use href="#pine" x="635" y="987" width="34" height="49"/>
    <use href="#pine" x="734" y="975" width="26" height="37"/>
    <use href="#pine" x="656" y="989" width="34" height="49"/>
    <use href="#pine2" x="686" y="975" width="34" height="49"/>
  </g>

  <!-- Sea-monster flourish tucked under the title cartouche on the right -->
  <use href="#seaMonster" x="1250" y="470" width="140" height="56"/>

  <!-- Castles -->
  <g id="castles">
    
    <g transform="translate(145,160)">
      <use href="#castle" width="150" height="160"/>
      <text x="75" y="180" text-anchor="middle"
            font-family="Georgia, serif" font-style="italic" font-weight="bold"
            font-size="22" fill="#2a1806"
            paint-order="stroke" stroke="#f5dfa8" stroke-width="4" stroke-linejoin="round">Zamek Ogrodzieniec</text>
    </g>

    <g transform="translate(1245,280)">
      <use href="#castle" width="150" height="160"/>
      <text x="75" y="180" text-anchor="middle"
            font-family="Georgia, serif" font-style="italic" font-weight="bold"
            font-size="22" fill="#2a1806"
            paint-order="stroke" stroke="#f5dfa8" stroke-width="4" stroke-linejoin="round">Zamek Olsztyn</text>
    </g>

    <g transform="translate(145,750)">
      <use href="#castle" width="150" height="160"/>
      <text x="75" y="180" text-anchor="middle"
            font-family="Georgia, serif" font-style="italic" font-weight="bold"
            font-size="22" fill="#2a1806"
            paint-order="stroke" stroke="#f5dfa8" stroke-width="4" stroke-linejoin="round">Zamek Mirów</text>
    </g>

    <g transform="translate(1245,750)">
      <use href="#castle" width="150" height="160"/>
      <text x="75" y="180" text-anchor="middle"
            font-family="Georgia, serif" font-style="italic" font-weight="bold"
            font-size="22" fill="#2a1806"
            paint-order="stroke" stroke="#f5dfa8" stroke-width="4" stroke-linejoin="round">Zamek Bobolice</text>
    </g>
  </g>

  <!-- Main winding trail (dashed red — treasure-map style) -->
  <g id="paths" fill="none" stroke="#a83a2a" stroke-width="4.5"
     stroke-linecap="round" stroke-dasharray="10 6" opacity="0.85">
    <path d="M 280,360 C 360,360 440,520 540,560 S 720,580 820,560 S 1000,580 1120,620 S 1240,720 1180,820 S 960,900 780,870 S 560,880 460,820"/>
  </g>
  <!-- Sub-branch paths from JS -->
  <g id="branches" fill="none" stroke="#a83a2a" stroke-width="3"
     stroke-linecap="round" stroke-dasharray="7 5" opacity="0.8"></g>

  <!-- Static cottage icons + labels drawn right into the SVG so the layout is
       identical across all viewers, including the cairosvg preview. -->
  <g id="cottages-static">
    
    <g data-slug="fredek" class="cottage-pin" transform="translate(1204,670)">
      <use href="#cottageHouse" width="52" height="56"/>
      <text x="26" y="78" text-anchor="middle" font-family="Georgia, serif" font-style="italic"
            font-weight="bold" font-size="20" fill="#2a1806" class="cottage-label"
            paint-order="stroke" stroke="#f5dfa8" stroke-width="4" stroke-linejoin="round">Fredek</text>
    </g>

    <g data-slug="iwo" class="cottage-pin" transform="translate(354,950)">
      <use href="#cottageHouse" width="52" height="56"/>
      <text x="26" y="78" text-anchor="middle" font-family="Georgia, serif" font-style="italic"
            font-weight="bold" font-size="20" fill="#2a1806" class="cottage-label"
            paint-order="stroke" stroke="#f5dfa8" stroke-width="4" stroke-linejoin="round">Iwo</text>
    </g>

    <g data-slug="zamczysko" class="cottage-pin" transform="translate(784,570)">
      <use href="#cottageHouse" width="52" height="56"/>
      <text x="26" y="78" text-anchor="middle" font-family="Georgia, serif" font-style="italic"
            font-weight="bold" font-size="20" fill="#2a1806" class="cottage-label"
            paint-order="stroke" stroke="#f5dfa8" stroke-width="4" stroke-linejoin="round">Góra Zamczysko</text>
    </g>

    <g data-slug="teodor" class="cottage-pin" transform="translate(804,420)">
      <use href="#cottageHouse" width="52" height="56"/>
      <text x="26" y="78" text-anchor="middle" font-family="Georgia, serif" font-style="italic"
            font-weight="bold" font-size="20" fill="#2a1806" class="cottage-label"
            paint-order="stroke" stroke="#f5dfa8" stroke-width="4" stroke-linejoin="round">Teodor</text>
    </g>

    <g data-slug="tupak" class="cottage-pin" transform="translate(1084,880)">
      <use href="#cottageHouse" width="52" height="56"/>
      <text x="26" y="78" text-anchor="middle" font-family="Georgia, serif" font-style="italic"
            font-weight="bold" font-size="20" fill="#2a1806" class="cottage-label"
            paint-order="stroke" stroke="#f5dfa8" stroke-width="4" stroke-linejoin="round">Tupak</text>
    </g>

    <g data-slug="elfka-z-duza-d" class="cottage-pin" transform="translate(574,650)">
      <use href="#cottageHouse" width="52" height="56"/>
      <text x="26" y="78" text-anchor="middle" font-family="Georgia, serif" font-style="italic"
            font-weight="bold" font-size="20" fill="#2a1806" class="cottage-label"
            paint-order="stroke" stroke="#f5dfa8" stroke-width="4" stroke-linejoin="round">Elfka</text>
    </g>

    <g data-slug="pazurek" class="cottage-pin" transform="translate(1034,560)">
      <use href="#cottageHouse" width="52" height="56"/>
      <text x="26" y="78" text-anchor="middle" font-family="Georgia, serif" font-style="italic"
            font-weight="bold" font-size="20" fill="#2a1806" class="cottage-label"
            paint-order="stroke" stroke="#f5dfa8" stroke-width="4" stroke-linejoin="round">Pazurek</text>
    </g>

    <g data-slug="halinka" class="cottage-pin" transform="translate(1074,430)">
      <use href="#cottageHouse" width="52" height="56"/>
      <text x="26" y="78" text-anchor="middle" font-family="Georgia, serif" font-style="italic"
            font-weight="bold" font-size="20" fill="#2a1806" class="cottage-label"
            paint-order="stroke" stroke="#f5dfa8" stroke-width="4" stroke-linejoin="round">Halinka</text>
    </g>

    <g data-slug="gwerda-filinek" class="cottage-pin" transform="translate(394,590)">
      <use href="#cottageHouse" width="52" height="56"/>
      <text x="26" y="78" text-anchor="middle" font-family="Georgia, serif" font-style="italic"
            font-weight="bold" font-size="20" fill="#2a1806" class="cottage-label"
            paint-order="stroke" stroke="#f5dfa8" stroke-width="4" stroke-linejoin="round">Gwerda i Filinek</text>
    </g>

    <g data-slug="straznik-zamku" class="cottage-pin" transform="translate(1014,260)">
      <use href="#cottageHouse" width="52" height="56"/>
      <text x="26" y="78" text-anchor="middle" font-family="Georgia, serif" font-style="italic"
            font-weight="bold" font-size="20" fill="#2a1806" class="cottage-label"
            paint-order="stroke" stroke="#f5dfa8" stroke-width="4" stroke-linejoin="round">Strażnik Zamku</text>
    </g>

    <g data-slug="dwaj-bracia" class="cottage-pin" transform="translate(514,850)">
      <use href="#cottageHouse" width="52" height="56"/>
      <text x="26" y="78" text-anchor="middle" font-family="Georgia, serif" font-style="italic"
            font-weight="bold" font-size="20" fill="#2a1806" class="cottage-label"
            paint-order="stroke" stroke="#f5dfa8" stroke-width="4" stroke-linejoin="round">Dwaj Bracia</text>
    </g>

    <g data-slug="czubata-myszka" class="cottage-pin" transform="translate(544,410)">
      <use href="#cottageHouse" width="52" height="56"/>
      <text x="26" y="78" text-anchor="middle" font-family="Georgia, serif" font-style="italic"
            font-weight="bold" font-size="20" fill="#2a1806" class="cottage-label"
            paint-order="stroke" stroke="#f5dfa8" stroke-width="4" stroke-linejoin="round">Czubata i Myszka</text>
    </g>

    <g data-slug="zielonowlosy" class="cottage-pin" transform="translate(384,430)">
      <use href="#cottageHouse" width="52" height="56"/>
      <text x="26" y="78" text-anchor="middle" font-family="Georgia, serif" font-style="italic"
            font-weight="bold" font-size="20" fill="#2a1806" class="cottage-label"
            paint-order="stroke" stroke="#f5dfa8" stroke-width="4" stroke-linejoin="round">Zielonowłosy</text>
    </g>

    <g data-slug="zaprasza" class="cottage-pin" transform="translate(744,690)">
      <use href="#cottageHouse" width="52" height="56"/>
      <text x="26" y="78" text-anchor="middle" font-family="Georgia, serif" font-style="italic"
            font-weight="bold" font-size="20" fill="#2a1806" class="cottage-label"
            paint-order="stroke" stroke="#f5dfa8" stroke-width="4" stroke-linejoin="round">Zaprasza</text>
    </g>

    <g data-slug="samotny" class="cottage-pin" transform="translate(964,690)">
      <use href="#cottageHouse" width="52" height="56"/>
      <text x="26" y="78" text-anchor="middle" font-family="Georgia, serif" font-style="italic"
            font-weight="bold" font-size="20" fill="#2a1806" class="cottage-label"
            paint-order="stroke" stroke="#f5dfa8" stroke-width="4" stroke-linejoin="round">Samotny Elf</text>
    </g>

    <g data-slug="skalne-iglice" class="cottage-pin" transform="translate(1134,780)">
      <use href="#cottageHouse" width="52" height="56"/>
      <text x="26" y="78" text-anchor="middle" font-family="Georgia, serif" font-style="italic"
            font-weight="bold" font-size="20" fill="#2a1806" class="cottage-label"
            paint-order="stroke" stroke="#f5dfa8" stroke-width="4" stroke-linejoin="round">Skalne Iglice</text>
    </g>

    <g data-slug="stary-elf" class="cottage-pin" transform="translate(704,870)">
      <use href="#cottageHouse" width="52" height="56"/>
      <text x="26" y="78" text-anchor="middle" font-family="Georgia, serif" font-style="italic"
            font-weight="bold" font-size="20" fill="#2a1806" class="cottage-label"
            paint-order="stroke" stroke="#f5dfa8" stroke-width="4" stroke-linejoin="round">Stary Elf</text>
    </g>

    <g data-slug="straznik-lodu" class="cottage-pin" transform="translate(694,270)">
      <use href="#cottageHouse" width="52" height="56"/>
      <text x="26" y="78" text-anchor="middle" font-family="Georgia, serif" font-style="italic"
            font-weight="bold" font-size="20" fill="#2a1806" class="cottage-label"
            paint-order="stroke" stroke="#f5dfa8" stroke-width="4" stroke-linejoin="round">Strażnik Lodu</text>
    </g>
  </g>

  <!-- Interactive hit layer populated by main.js (transparent overlay that
       receives hover/click; the visible cottage icon is in cottages-static). -->
  <g id="cottages"></g>

  <!-- Compass rose (bottom-left, like classic treasure maps) -->
  <g transform="translate(200,930)" filter="url(#softShadow)">
    <use href="#compass" width="170" height="170"/>
  </g>

  <!-- Title cartouche (top-right) -->
  <g transform="translate(960,140)" filter="url(#softShadow)">
    <path d="M 0,0 H 440 Q 480,0 488,30 L 500,70 Q 508,100 476,108 H 12 Q -20,100 -12,70 L 0,30 Q 8,0 40,0"
          fill="#f5dfa8" stroke="#4a2d10" stroke-width="2.2"/>
    <path d="M 14,16 H 474 Q 486,30 490,60 L 480,90 H 20 L 10,60 Q 14,30 14,16 Z"
          fill="none" stroke="#4a2d10" stroke-width="0.8" stroke-dasharray="3 3"/>
    <text x="250" y="58" text-anchor="middle" font-family="Georgia, serif"
          font-size="42" font-weight="bold" font-style="italic" fill="#2a1806">Chatynkowo</text>
    <text x="250" y="90" text-anchor="middle" font-family="Georgia, serif"
          font-size="17" font-style="italic" fill="#6b4218">~ mapa ukrytych chatynek Elfów ~</text>
  </g>

  <!-- Inner burnt vignette on top of everything (subtle), clipped to paper -->
  <path d="M28.0,28.0 L58.7,15.4 L76.1,29.3 L107.3,28.3 L170.1,12.5 L208.8,39.8 L251.5,32.6 L312.5,24.3 L304.6,40.9 L349.6,14.2 L435.2,16.5 L462.1,23.4 L458.3,12.1 L537.2,25.4 L569.7,26.3 L620.1,35.2 L657.7,28.9 L708.0,20.4 L704.4,25.1 L730.7,27.6 L811.8,37.5 L865.7,21.3 L882.2,30.9 L936.3,44.0 L968.6,12.2 L1008.5,45.8 L1021.7,23.9 L1034.1,26.6 L1090.5,12.1 L1122.3,18.9 L1207.9,12.9 L1234.0,41.8 L1284.0,20.0 L1302.2,41.8 L1313.5,16.3 L1364.3,27.5 L1401.3,10.1 L1457.2,30.4 L1508.9,28.6 L1552.3,11.9 L1572.0,28.0 L1558.5,84.9 L1575.6,91.4 L1587.8,139.9 L1584.2,164.0 L1590.0,191.2 L1576.9,229.1 L1567.9,305.0 L1577.5,319.0 L1559.4,363.8 L1572.6,399.5 L1577.7,424.6 L1584.2,491.1 L1571.0,537.3 L1589.0,564.4 L1558.9,625.8 L1576.8,620.5 L1570.8,694.3 L1582.0,712.8 L1559.3,780.8 L1563.4,799.8 L1577.2,820.2 L1579.9,840.5 L1555.6,912.8 L1554.4,972.3 L1582.1,969.7 L1582.6,1008.1 L1559.7,1075.5 L1561.2,1094.4 L1557.2,1146.9 L1572.0,1172.0 L1524.4,1172.8 L1470.9,1178.0 L1429.0,1175.7 L1396.6,1163.9 L1393.9,1184.6 L1314.9,1184.7 L1275.1,1166.3 L1269.9,1185.3 L1195.0,1166.6 L1151.8,1174.4 L1132.2,1182.4 L1119.9,1181.3 L1092.4,1174.9 L1007.1,1177.3 L989.4,1157.4 L928.0,1171.9 L915.5,1189.3 L890.8,1189.9 L854.3,1173.0 L796.1,1178.3 L765.9,1161.8 L723.5,1181.1 L666.2,1171.7 L630.7,1157.2 L599.8,1171.8 L555.8,1173.7 L527.2,1156.1 L472.8,1156.1 L442.1,1156.0 L437.6,1185.6 L410.3,1181.3 L318.4,1161.8 L316.3,1164.2 L272.3,1158.2 L240.4,1155.7 L176.5,1154.4 L164.4,1174.5 L118.8,1183.0 L51.8,1189.3 L28.0,1172.0 L10.7,1140.0 L28.4,1098.8 L38.4,1026.0 L19.6,1046.8 L19.7,976.0 L42.8,940.4 L15.4,907.7 L35.2,871.9 L34.8,850.5 L43.8,807.5 L13.0,731.6 L41.1,735.2 L29.9,675.1 L14.7,648.2 L13.9,618.7 L17.3,586.2 L37.3,536.9 L16.4,488.7 L19.0,479.2 L29.8,404.9 L43.6,380.2 L25.6,318.6 L24.2,279.5 L45.4,251.4 L35.4,200.7 L22.5,193.8 L12.5,154.5 L15.9,123.8 L41.3,47.1 L28.0,28.0 Z" fill="url(#innerBurn)" pointer-events="none" opacity="0.85"/>
</svg>
